G04 #@! TF.GenerationSoftware,KiCad,Pcbnew,(5.1.4-0)*
G04 #@! TF.CreationDate,2020-09-11T02:24:06-07:00*
G04 #@! TF.ProjectId,keybored,6b657962-6f72-4656-942e-6b696361645f,rev?*
G04 #@! TF.SameCoordinates,Original*
G04 #@! TF.FileFunction,Copper,L2,Bot*
G04 #@! TF.FilePolarity,Positive*
%FSLAX46Y46*%
G04 Gerber Fmt 4.6, Leading zero omitted, Abs format (unit mm)*
G04 Created by KiCad (PCBNEW (5.1.4-0)) date 2020-09-11 02:24:06*
%MOMM*%
%LPD*%
G04 APERTURE LIST*
%ADD10C,2.250000*%
%ADD11C,2.250000*%
%ADD12R,1.200000X0.900000*%
%ADD13R,1.400000X1.200000*%
%ADD14O,1.700000X2.700000*%
%ADD15R,0.500000X2.250000*%
%ADD16R,0.550000X1.500000*%
%ADD17R,1.500000X0.550000*%
%ADD18R,1.800000X1.100000*%
%ADD19C,0.100000*%
%ADD20C,0.975000*%
%ADD21C,1.250000*%
%ADD22C,0.800000*%
%ADD23C,0.381000*%
%ADD24C,0.254000*%
G04 APERTURE END LIST*
D10*
X468035000Y-218758000D03*
X467380001Y-219488000D03*
D11*
X466725000Y-220218000D02*
X468035002Y-218758000D01*
D10*
X473075000Y-217678000D03*
X473055000Y-217968000D03*
D11*
X473035000Y-218258000D02*
X473075000Y-217678000D01*
D10*
X391941000Y-142431000D03*
X391286001Y-143161000D03*
D11*
X390631000Y-143891000D02*
X391941002Y-142431000D01*
D10*
X396981000Y-141351000D03*
X396961000Y-141641000D03*
D11*
X396941000Y-141931000D02*
X396981000Y-141351000D01*
D12*
X488315000Y-201296000D03*
X488315000Y-204596000D03*
D10*
X482580000Y-198791000D03*
D11*
X482560000Y-199081000D02*
X482600000Y-198501000D01*
D10*
X482600000Y-198501000D03*
X476905001Y-200311000D03*
D11*
X476250000Y-201041000D02*
X477560002Y-199581000D01*
D10*
X477560000Y-199581000D03*
X482580000Y-179741000D03*
D11*
X482560000Y-180031000D02*
X482600000Y-179451000D01*
D10*
X482600000Y-179451000D03*
X476905001Y-181261000D03*
D11*
X476250000Y-181991000D02*
X477560002Y-180531000D01*
D10*
X477560000Y-180531000D03*
X482580000Y-160691000D03*
D11*
X482560000Y-160981000D02*
X482600000Y-160401000D01*
D10*
X482600000Y-160401000D03*
X476905001Y-162211000D03*
D11*
X476250000Y-162941000D02*
X477560002Y-161481000D01*
D10*
X477560000Y-161481000D03*
X349230000Y-217841000D03*
D11*
X349210000Y-218131000D02*
X349250000Y-217551000D01*
D10*
X349250000Y-217551000D03*
X343555001Y-219361000D03*
D11*
X342900000Y-220091000D02*
X344210002Y-218631000D01*
D10*
X344210000Y-218631000D03*
X330180000Y-217841000D03*
D11*
X330160000Y-218131000D02*
X330200000Y-217551000D01*
D10*
X330200000Y-217551000D03*
X324505001Y-219361000D03*
D11*
X323850000Y-220091000D02*
X325160002Y-218631000D01*
D10*
X325160000Y-218631000D03*
X311130000Y-217841000D03*
D11*
X311110000Y-218131000D02*
X311150000Y-217551000D01*
D10*
X311150000Y-217551000D03*
X305455001Y-219361000D03*
D11*
X304800000Y-220091000D02*
X306110002Y-218631000D01*
D10*
X306110000Y-218631000D03*
X292080000Y-217841000D03*
D11*
X292060000Y-218131000D02*
X292100000Y-217551000D01*
D10*
X292100000Y-217551000D03*
X286405001Y-219361000D03*
D11*
X285750000Y-220091000D02*
X287060002Y-218631000D01*
D10*
X287060000Y-218631000D03*
X273030000Y-217841000D03*
D11*
X273010000Y-218131000D02*
X273050000Y-217551000D01*
D10*
X273050000Y-217551000D03*
X267355001Y-219361000D03*
D11*
X266700000Y-220091000D02*
X268010002Y-218631000D01*
D10*
X268010000Y-218631000D03*
X253980000Y-217841000D03*
D11*
X253960000Y-218131000D02*
X254000000Y-217551000D01*
D10*
X254000000Y-217551000D03*
X248305001Y-219361000D03*
D11*
X247650000Y-220091000D02*
X248960002Y-218631000D01*
D10*
X248960000Y-218631000D03*
X234930000Y-217841000D03*
D11*
X234910000Y-218131000D02*
X234950000Y-217551000D01*
D10*
X234950000Y-217551000D03*
X229255001Y-219361000D03*
D11*
X228600000Y-220091000D02*
X229910002Y-218631000D01*
D10*
X229910000Y-218631000D03*
X215880000Y-217841000D03*
D11*
X215860000Y-218131000D02*
X215900000Y-217551000D01*
D10*
X215900000Y-217551000D03*
X210205001Y-219361000D03*
D11*
X209550000Y-220091000D02*
X210860002Y-218631000D01*
D10*
X210860000Y-218631000D03*
X196830000Y-217841000D03*
D11*
X196810000Y-218131000D02*
X196850000Y-217551000D01*
D10*
X196850000Y-217551000D03*
X191155001Y-219361000D03*
D11*
X190500000Y-220091000D02*
X191810002Y-218631000D01*
D10*
X191810000Y-218631000D03*
X434955000Y-227366000D03*
D11*
X434935000Y-227656000D02*
X434975000Y-227076000D01*
D10*
X434975000Y-227076000D03*
X429280001Y-228886000D03*
D11*
X428625000Y-229616000D02*
X429935002Y-228156000D01*
D10*
X429935000Y-228156000D03*
X415905000Y-227366000D03*
D11*
X415885000Y-227656000D02*
X415925000Y-227076000D01*
D10*
X415925000Y-227076000D03*
X410230001Y-228886000D03*
D11*
X409575000Y-229616000D02*
X410885002Y-228156000D01*
D10*
X410885000Y-228156000D03*
X396855000Y-227366000D03*
D11*
X396835000Y-227656000D02*
X396875000Y-227076000D01*
D10*
X396875000Y-227076000D03*
X391180001Y-228886000D03*
D11*
X390525000Y-229616000D02*
X391835002Y-228156000D01*
D10*
X391835000Y-228156000D03*
X368280000Y-217841000D03*
D11*
X368260000Y-218131000D02*
X368300000Y-217551000D01*
D10*
X368300000Y-217551000D03*
X362605001Y-219361000D03*
D11*
X361950000Y-220091000D02*
X363260002Y-218631000D01*
D10*
X363260000Y-218631000D03*
X177780000Y-217841000D03*
D11*
X177760000Y-218131000D02*
X177800000Y-217551000D01*
D10*
X177800000Y-217551000D03*
X172105001Y-219361000D03*
D11*
X171450000Y-220091000D02*
X172760002Y-218631000D01*
D10*
X172760000Y-218631000D03*
X349230000Y-198791000D03*
D11*
X349210000Y-199081000D02*
X349250000Y-198501000D01*
D10*
X349250000Y-198501000D03*
X343555001Y-200311000D03*
D11*
X342900000Y-201041000D02*
X344210002Y-199581000D01*
D10*
X344210000Y-199581000D03*
X330180000Y-198791000D03*
D11*
X330160000Y-199081000D02*
X330200000Y-198501000D01*
D10*
X330200000Y-198501000D03*
X324505001Y-200311000D03*
D11*
X323850000Y-201041000D02*
X325160002Y-199581000D01*
D10*
X325160000Y-199581000D03*
X311130000Y-198791000D03*
D11*
X311110000Y-199081000D02*
X311150000Y-198501000D01*
D10*
X311150000Y-198501000D03*
X305455001Y-200311000D03*
D11*
X304800000Y-201041000D02*
X306110002Y-199581000D01*
D10*
X306110000Y-199581000D03*
X292080000Y-198791000D03*
D11*
X292060000Y-199081000D02*
X292100000Y-198501000D01*
D10*
X292100000Y-198501000D03*
X286405001Y-200311000D03*
D11*
X285750000Y-201041000D02*
X287060002Y-199581000D01*
D10*
X287060000Y-199581000D03*
X273030000Y-198791000D03*
D11*
X273010000Y-199081000D02*
X273050000Y-198501000D01*
D10*
X273050000Y-198501000D03*
X267355001Y-200311000D03*
D11*
X266700000Y-201041000D02*
X268010002Y-199581000D01*
D10*
X268010000Y-199581000D03*
X253980000Y-198791000D03*
D11*
X253960000Y-199081000D02*
X254000000Y-198501000D01*
D10*
X254000000Y-198501000D03*
X248305001Y-200311000D03*
D11*
X247650000Y-201041000D02*
X248960002Y-199581000D01*
D10*
X248960000Y-199581000D03*
X234930000Y-198791000D03*
D11*
X234910000Y-199081000D02*
X234950000Y-198501000D01*
D10*
X234950000Y-198501000D03*
X229255001Y-200311000D03*
D11*
X228600000Y-201041000D02*
X229910002Y-199581000D01*
D10*
X229910000Y-199581000D03*
X215880000Y-198791000D03*
D11*
X215860000Y-199081000D02*
X215900000Y-198501000D01*
D10*
X215900000Y-198501000D03*
X210205001Y-200311000D03*
D11*
X209550000Y-201041000D02*
X210860002Y-199581000D01*
D10*
X210860000Y-199581000D03*
X196830000Y-198791000D03*
D11*
X196810000Y-199081000D02*
X196850000Y-198501000D01*
D10*
X196850000Y-198501000D03*
X191155001Y-200311000D03*
D11*
X190500000Y-201041000D02*
X191810002Y-199581000D01*
D10*
X191810000Y-199581000D03*
X463530000Y-198791000D03*
D11*
X463510000Y-199081000D02*
X463550000Y-198501000D01*
D10*
X463550000Y-198501000D03*
X457855001Y-200311000D03*
D11*
X457200000Y-201041000D02*
X458510002Y-199581000D01*
D10*
X458510000Y-199581000D03*
X444480000Y-198791000D03*
D11*
X444460000Y-199081000D02*
X444500000Y-198501000D01*
D10*
X444500000Y-198501000D03*
X438805001Y-200311000D03*
D11*
X438150000Y-201041000D02*
X439460002Y-199581000D01*
D10*
X439460000Y-199581000D03*
X415905000Y-208316000D03*
D11*
X415885000Y-208606000D02*
X415925000Y-208026000D01*
D10*
X415925000Y-208026000D03*
X410230001Y-209836000D03*
D11*
X409575000Y-210566000D02*
X410885002Y-209106000D01*
D10*
X410885000Y-209106000D03*
X387330000Y-198791000D03*
D11*
X387310000Y-199081000D02*
X387350000Y-198501000D01*
D10*
X387350000Y-198501000D03*
X381655001Y-200311000D03*
D11*
X381000000Y-201041000D02*
X382310002Y-199581000D01*
D10*
X382310000Y-199581000D03*
X368280000Y-198791000D03*
D11*
X368260000Y-199081000D02*
X368300000Y-198501000D01*
D10*
X368300000Y-198501000D03*
X362605001Y-200311000D03*
D11*
X361950000Y-201041000D02*
X363260002Y-199581000D01*
D10*
X363260000Y-199581000D03*
X177780000Y-198791000D03*
D11*
X177760000Y-199081000D02*
X177800000Y-198501000D01*
D10*
X177800000Y-198501000D03*
X172105001Y-200311000D03*
D11*
X171450000Y-201041000D02*
X172760002Y-199581000D01*
D10*
X172760000Y-199581000D03*
X349230000Y-179741000D03*
D11*
X349210000Y-180031000D02*
X349250000Y-179451000D01*
D10*
X349250000Y-179451000D03*
X343555001Y-181261000D03*
D11*
X342900000Y-181991000D02*
X344210002Y-180531000D01*
D10*
X344210000Y-180531000D03*
X330180000Y-179741000D03*
D11*
X330160000Y-180031000D02*
X330200000Y-179451000D01*
D10*
X330200000Y-179451000D03*
X324505001Y-181261000D03*
D11*
X323850000Y-181991000D02*
X325160002Y-180531000D01*
D10*
X325160000Y-180531000D03*
X311130000Y-179741000D03*
D11*
X311110000Y-180031000D02*
X311150000Y-179451000D01*
D10*
X311150000Y-179451000D03*
X305455001Y-181261000D03*
D11*
X304800000Y-181991000D02*
X306110002Y-180531000D01*
D10*
X306110000Y-180531000D03*
X292080000Y-179741000D03*
D11*
X292060000Y-180031000D02*
X292100000Y-179451000D01*
D10*
X292100000Y-179451000D03*
X286405001Y-181261000D03*
D11*
X285750000Y-181991000D02*
X287060002Y-180531000D01*
D10*
X287060000Y-180531000D03*
X273030000Y-179741000D03*
D11*
X273010000Y-180031000D02*
X273050000Y-179451000D01*
D10*
X273050000Y-179451000D03*
X267355001Y-181261000D03*
D11*
X266700000Y-181991000D02*
X268010002Y-180531000D01*
D10*
X268010000Y-180531000D03*
X253980000Y-179741000D03*
D11*
X253960000Y-180031000D02*
X254000000Y-179451000D01*
D10*
X254000000Y-179451000D03*
X248305001Y-181261000D03*
D11*
X247650000Y-181991000D02*
X248960002Y-180531000D01*
D10*
X248960000Y-180531000D03*
X234930000Y-179741000D03*
D11*
X234910000Y-180031000D02*
X234950000Y-179451000D01*
D10*
X234950000Y-179451000D03*
X229255001Y-181261000D03*
D11*
X228600000Y-181991000D02*
X229910002Y-180531000D01*
D10*
X229910000Y-180531000D03*
X215880000Y-179741000D03*
D11*
X215860000Y-180031000D02*
X215900000Y-179451000D01*
D10*
X215900000Y-179451000D03*
X210205001Y-181261000D03*
D11*
X209550000Y-181991000D02*
X210860002Y-180531000D01*
D10*
X210860000Y-180531000D03*
X196830000Y-179741000D03*
D11*
X196810000Y-180031000D02*
X196850000Y-179451000D01*
D10*
X196850000Y-179451000D03*
X191155001Y-181261000D03*
D11*
X190500000Y-181991000D02*
X191810002Y-180531000D01*
D10*
X191810000Y-180531000D03*
X463530000Y-179741000D03*
D11*
X463510000Y-180031000D02*
X463550000Y-179451000D01*
D10*
X463550000Y-179451000D03*
X457855001Y-181261000D03*
D11*
X457200000Y-181991000D02*
X458510002Y-180531000D01*
D10*
X458510000Y-180531000D03*
X444480000Y-179741000D03*
D11*
X444460000Y-180031000D02*
X444500000Y-179451000D01*
D10*
X444500000Y-179451000D03*
X438805001Y-181261000D03*
D11*
X438150000Y-181991000D02*
X439460002Y-180531000D01*
D10*
X439460000Y-180531000D03*
X406380000Y-179741000D03*
D11*
X406360000Y-180031000D02*
X406400000Y-179451000D01*
D10*
X406400000Y-179451000D03*
X400705001Y-181261000D03*
D11*
X400050000Y-181991000D02*
X401360002Y-180531000D01*
D10*
X401360000Y-180531000D03*
X387330000Y-179741000D03*
D11*
X387310000Y-180031000D02*
X387350000Y-179451000D01*
D10*
X387350000Y-179451000D03*
X381655001Y-181261000D03*
D11*
X381000000Y-181991000D02*
X382310002Y-180531000D01*
D10*
X382310000Y-180531000D03*
X368280000Y-179741000D03*
D11*
X368260000Y-180031000D02*
X368300000Y-179451000D01*
D10*
X368300000Y-179451000D03*
X362605001Y-181261000D03*
D11*
X361950000Y-181991000D02*
X363260002Y-180531000D01*
D10*
X363260000Y-180531000D03*
X177780000Y-179741000D03*
D11*
X177760000Y-180031000D02*
X177800000Y-179451000D01*
D10*
X177800000Y-179451000D03*
X172105001Y-181261000D03*
D11*
X171450000Y-181991000D02*
X172760002Y-180531000D01*
D10*
X172760000Y-180531000D03*
X349230000Y-160691000D03*
D11*
X349210000Y-160981000D02*
X349250000Y-160401000D01*
D10*
X349250000Y-160401000D03*
X343555001Y-162211000D03*
D11*
X342900000Y-162941000D02*
X344210002Y-161481000D01*
D10*
X344210000Y-161481000D03*
X330180000Y-160691000D03*
D11*
X330160000Y-160981000D02*
X330200000Y-160401000D01*
D10*
X330200000Y-160401000D03*
X324505001Y-162211000D03*
D11*
X323850000Y-162941000D02*
X325160002Y-161481000D01*
D10*
X325160000Y-161481000D03*
X311130000Y-160691000D03*
D11*
X311110000Y-160981000D02*
X311150000Y-160401000D01*
D10*
X311150000Y-160401000D03*
X305455001Y-162211000D03*
D11*
X304800000Y-162941000D02*
X306110002Y-161481000D01*
D10*
X306110000Y-161481000D03*
X292080000Y-160691000D03*
D11*
X292060000Y-160981000D02*
X292100000Y-160401000D01*
D10*
X292100000Y-160401000D03*
X286405001Y-162211000D03*
D11*
X285750000Y-162941000D02*
X287060002Y-161481000D01*
D10*
X287060000Y-161481000D03*
X273030000Y-160691000D03*
D11*
X273010000Y-160981000D02*
X273050000Y-160401000D01*
D10*
X273050000Y-160401000D03*
X267355001Y-162211000D03*
D11*
X266700000Y-162941000D02*
X268010002Y-161481000D01*
D10*
X268010000Y-161481000D03*
X253980000Y-160691000D03*
D11*
X253960000Y-160981000D02*
X254000000Y-160401000D01*
D10*
X254000000Y-160401000D03*
X248305001Y-162211000D03*
D11*
X247650000Y-162941000D02*
X248960002Y-161481000D01*
D10*
X248960000Y-161481000D03*
X234930000Y-160691000D03*
D11*
X234910000Y-160981000D02*
X234950000Y-160401000D01*
D10*
X234950000Y-160401000D03*
X229255001Y-162211000D03*
D11*
X228600000Y-162941000D02*
X229910002Y-161481000D01*
D10*
X229910000Y-161481000D03*
X215880000Y-160691000D03*
D11*
X215860000Y-160981000D02*
X215900000Y-160401000D01*
D10*
X215900000Y-160401000D03*
X210205001Y-162211000D03*
D11*
X209550000Y-162941000D02*
X210860002Y-161481000D01*
D10*
X210860000Y-161481000D03*
X196830000Y-160691000D03*
D11*
X196810000Y-160981000D02*
X196850000Y-160401000D01*
D10*
X196850000Y-160401000D03*
X191155001Y-162211000D03*
D11*
X190500000Y-162941000D02*
X191810002Y-161481000D01*
D10*
X191810000Y-161481000D03*
X463530000Y-160691000D03*
D11*
X463510000Y-160981000D02*
X463550000Y-160401000D01*
D10*
X463550000Y-160401000D03*
X457855001Y-162211000D03*
D11*
X457200000Y-162941000D02*
X458510002Y-161481000D01*
D10*
X458510000Y-161481000D03*
X444480000Y-160691000D03*
D11*
X444460000Y-160981000D02*
X444500000Y-160401000D01*
D10*
X444500000Y-160401000D03*
X438805001Y-162211000D03*
D11*
X438150000Y-162941000D02*
X439460002Y-161481000D01*
D10*
X439460000Y-161481000D03*
X406380000Y-160691000D03*
D11*
X406360000Y-160981000D02*
X406400000Y-160401000D01*
D10*
X406400000Y-160401000D03*
X400705001Y-162211000D03*
D11*
X400050000Y-162941000D02*
X401360002Y-161481000D01*
D10*
X401360000Y-161481000D03*
X387330000Y-160691000D03*
D11*
X387310000Y-160981000D02*
X387350000Y-160401000D01*
D10*
X387350000Y-160401000D03*
X381655001Y-162211000D03*
D11*
X381000000Y-162941000D02*
X382310002Y-161481000D01*
D10*
X382310000Y-161481000D03*
X368280000Y-160691000D03*
D11*
X368260000Y-160981000D02*
X368300000Y-160401000D01*
D10*
X368300000Y-160401000D03*
X362605001Y-162211000D03*
D11*
X361950000Y-162941000D02*
X363260002Y-161481000D01*
D10*
X363260000Y-161481000D03*
X177780000Y-160691000D03*
D11*
X177760000Y-160981000D02*
X177800000Y-160401000D01*
D10*
X177800000Y-160401000D03*
X172105001Y-162211000D03*
D11*
X171450000Y-162941000D02*
X172760002Y-161481000D01*
D10*
X172760000Y-161481000D03*
D12*
X478790000Y-220346000D03*
X478790000Y-223646000D03*
X440690000Y-229871000D03*
X440690000Y-233171000D03*
X421640000Y-229871000D03*
X421640000Y-233171000D03*
X402590000Y-229871000D03*
X402590000Y-233171000D03*
X374015000Y-220346000D03*
X374015000Y-223646000D03*
X354965000Y-220346000D03*
X354965000Y-223646000D03*
X335915000Y-220346000D03*
X335915000Y-223646000D03*
X316865000Y-220346000D03*
X316865000Y-223646000D03*
X297688000Y-220346000D03*
X297688000Y-223646000D03*
X278765000Y-220346000D03*
X278765000Y-223646000D03*
X259715000Y-220346000D03*
X259715000Y-223646000D03*
X240665000Y-220346000D03*
X240665000Y-223646000D03*
X221488000Y-220346000D03*
X221488000Y-223646000D03*
X202565000Y-220346000D03*
X202565000Y-223646000D03*
X183515000Y-220346000D03*
X183515000Y-223646000D03*
X488315000Y-182246000D03*
X488315000Y-185546000D03*
X469265000Y-201296000D03*
X469265000Y-204596000D03*
X450215000Y-201296000D03*
X450215000Y-204596000D03*
X422275000Y-210186000D03*
X422275000Y-213486000D03*
X393065000Y-201296000D03*
X393065000Y-204596000D03*
X374015000Y-201296000D03*
X374015000Y-204596000D03*
X354965000Y-201296000D03*
X354965000Y-204596000D03*
X335915000Y-201296000D03*
X335915000Y-204596000D03*
X316865000Y-201296000D03*
X316865000Y-204596000D03*
X297942000Y-201296000D03*
X297942000Y-204596000D03*
X278765000Y-201296000D03*
X278765000Y-204596000D03*
X259715000Y-201296000D03*
X259715000Y-204596000D03*
X240665000Y-201296000D03*
X240665000Y-204596000D03*
X221615000Y-201296000D03*
X221615000Y-204596000D03*
X202565000Y-201296000D03*
X202565000Y-204596000D03*
X183515000Y-201296000D03*
X183515000Y-204596000D03*
X488315000Y-163196000D03*
X488315000Y-166496000D03*
X469265000Y-182246000D03*
X469265000Y-185546000D03*
X450215000Y-182246000D03*
X450215000Y-185546000D03*
X412115000Y-182246000D03*
X412115000Y-185546000D03*
X393065000Y-182246000D03*
X393065000Y-185546000D03*
X374015000Y-182246000D03*
X374015000Y-185546000D03*
X354965000Y-182246000D03*
X354965000Y-185546000D03*
X335915000Y-182246000D03*
X335915000Y-185546000D03*
X316865000Y-182246000D03*
X316865000Y-185546000D03*
X297815000Y-182246000D03*
X297815000Y-185546000D03*
X278765000Y-182246000D03*
X278765000Y-185546000D03*
X259715000Y-182246000D03*
X259715000Y-185546000D03*
X240665000Y-182246000D03*
X240665000Y-185546000D03*
X221615000Y-182246000D03*
X221615000Y-185546000D03*
X202565000Y-182246000D03*
X202565000Y-185546000D03*
X183515000Y-182246000D03*
X183515000Y-185546000D03*
X402717000Y-144146000D03*
X402717000Y-147446000D03*
X469265000Y-163196000D03*
X469265000Y-166496000D03*
X450215000Y-163196000D03*
X450215000Y-166496000D03*
X412115000Y-163196000D03*
X412115000Y-166496000D03*
X393065000Y-163196000D03*
X393065000Y-166496000D03*
X374015000Y-163196000D03*
X374015000Y-166496000D03*
X354965000Y-163196000D03*
X354965000Y-166496000D03*
X335915000Y-163196000D03*
X335915000Y-166496000D03*
X316865000Y-163196000D03*
X316865000Y-166496000D03*
X297815000Y-163196000D03*
X297815000Y-166496000D03*
X278765000Y-163196000D03*
X278765000Y-166496000D03*
X259715000Y-163196000D03*
X259715000Y-166496000D03*
X240665000Y-163196000D03*
X240665000Y-166496000D03*
X221615000Y-163196000D03*
X221615000Y-166496000D03*
X202565000Y-163196000D03*
X202565000Y-166496000D03*
X183515000Y-163196000D03*
X183515000Y-166496000D03*
D13*
X136513750Y-194126750D03*
X134313750Y-194126750D03*
X134313750Y-195826750D03*
X136513750Y-195826750D03*
D14*
X110999250Y-181800500D03*
X118299250Y-181800500D03*
X118299250Y-186300500D03*
X110999250Y-186300500D03*
D15*
X113049250Y-186300500D03*
X113849250Y-186300500D03*
X114649250Y-186300500D03*
X115449250Y-186300500D03*
X116249250Y-186300500D03*
D16*
X131318500Y-211852750D03*
X132118500Y-211852750D03*
X132918500Y-211852750D03*
X133718500Y-211852750D03*
X134518500Y-211852750D03*
X135318500Y-211852750D03*
X136118500Y-211852750D03*
X136918500Y-211852750D03*
X137718500Y-211852750D03*
X138518500Y-211852750D03*
X139318500Y-211852750D03*
D17*
X141018500Y-210152750D03*
X141018500Y-209352750D03*
X141018500Y-208552750D03*
X141018500Y-207752750D03*
X141018500Y-206952750D03*
X141018500Y-206152750D03*
X141018500Y-205352750D03*
X141018500Y-204552750D03*
X141018500Y-203752750D03*
X141018500Y-202952750D03*
X141018500Y-202152750D03*
D16*
X139318500Y-200452750D03*
X138518500Y-200452750D03*
X137718500Y-200452750D03*
X136918500Y-200452750D03*
X136118500Y-200452750D03*
X135318500Y-200452750D03*
X134518500Y-200452750D03*
X133718500Y-200452750D03*
X132918500Y-200452750D03*
X132118500Y-200452750D03*
X131318500Y-200452750D03*
D17*
X129618500Y-202152750D03*
X129618500Y-202952750D03*
X129618500Y-203752750D03*
X129618500Y-204552750D03*
X129618500Y-205352750D03*
X129618500Y-206152750D03*
X129618500Y-206952750D03*
X129618500Y-207752750D03*
X129618500Y-208552750D03*
X129618500Y-209352750D03*
X129618500Y-210152750D03*
D18*
X109168000Y-220671000D03*
X115368000Y-216971000D03*
X109168000Y-216971000D03*
X115368000Y-220671000D03*
D19*
G36*
X144498142Y-209745424D02*
G01*
X144521803Y-209748934D01*
X144545007Y-209754746D01*
X144567529Y-209762804D01*
X144589153Y-209773032D01*
X144609670Y-209785329D01*
X144628883Y-209799579D01*
X144646607Y-209815643D01*
X144662671Y-209833367D01*
X144676921Y-209852580D01*
X144689218Y-209873097D01*
X144699446Y-209894721D01*
X144707504Y-209917243D01*
X144713316Y-209940447D01*
X144716826Y-209964108D01*
X144718000Y-209988000D01*
X144718000Y-210475500D01*
X144716826Y-210499392D01*
X144713316Y-210523053D01*
X144707504Y-210546257D01*
X144699446Y-210568779D01*
X144689218Y-210590403D01*
X144676921Y-210610920D01*
X144662671Y-210630133D01*
X144646607Y-210647857D01*
X144628883Y-210663921D01*
X144609670Y-210678171D01*
X144589153Y-210690468D01*
X144567529Y-210700696D01*
X144545007Y-210708754D01*
X144521803Y-210714566D01*
X144498142Y-210718076D01*
X144474250Y-210719250D01*
X143561750Y-210719250D01*
X143537858Y-210718076D01*
X143514197Y-210714566D01*
X143490993Y-210708754D01*
X143468471Y-210700696D01*
X143446847Y-210690468D01*
X143426330Y-210678171D01*
X143407117Y-210663921D01*
X143389393Y-210647857D01*
X143373329Y-210630133D01*
X143359079Y-210610920D01*
X143346782Y-210590403D01*
X143336554Y-210568779D01*
X143328496Y-210546257D01*
X143322684Y-210523053D01*
X143319174Y-210499392D01*
X143318000Y-210475500D01*
X143318000Y-209988000D01*
X143319174Y-209964108D01*
X143322684Y-209940447D01*
X143328496Y-209917243D01*
X143336554Y-209894721D01*
X143346782Y-209873097D01*
X143359079Y-209852580D01*
X143373329Y-209833367D01*
X143389393Y-209815643D01*
X143407117Y-209799579D01*
X143426330Y-209785329D01*
X143446847Y-209773032D01*
X143468471Y-209762804D01*
X143490993Y-209754746D01*
X143514197Y-209748934D01*
X143537858Y-209745424D01*
X143561750Y-209744250D01*
X144474250Y-209744250D01*
X144498142Y-209745424D01*
X144498142Y-209745424D01*
G37*
D20*
X144018000Y-210231750D03*
D19*
G36*
X144498142Y-211620424D02*
G01*
X144521803Y-211623934D01*
X144545007Y-211629746D01*
X144567529Y-211637804D01*
X144589153Y-211648032D01*
X144609670Y-211660329D01*
X144628883Y-211674579D01*
X144646607Y-211690643D01*
X144662671Y-211708367D01*
X144676921Y-211727580D01*
X144689218Y-211748097D01*
X144699446Y-211769721D01*
X144707504Y-211792243D01*
X144713316Y-211815447D01*
X144716826Y-211839108D01*
X144718000Y-211863000D01*
X144718000Y-212350500D01*
X144716826Y-212374392D01*
X144713316Y-212398053D01*
X144707504Y-212421257D01*
X144699446Y-212443779D01*
X144689218Y-212465403D01*
X144676921Y-212485920D01*
X144662671Y-212505133D01*
X144646607Y-212522857D01*
X144628883Y-212538921D01*
X144609670Y-212553171D01*
X144589153Y-212565468D01*
X144567529Y-212575696D01*
X144545007Y-212583754D01*
X144521803Y-212589566D01*
X144498142Y-212593076D01*
X144474250Y-212594250D01*
X143561750Y-212594250D01*
X143537858Y-212593076D01*
X143514197Y-212589566D01*
X143490993Y-212583754D01*
X143468471Y-212575696D01*
X143446847Y-212565468D01*
X143426330Y-212553171D01*
X143407117Y-212538921D01*
X143389393Y-212522857D01*
X143373329Y-212505133D01*
X143359079Y-212485920D01*
X143346782Y-212465403D01*
X143336554Y-212443779D01*
X143328496Y-212421257D01*
X143322684Y-212398053D01*
X143319174Y-212374392D01*
X143318000Y-212350500D01*
X143318000Y-211863000D01*
X143319174Y-211839108D01*
X143322684Y-211815447D01*
X143328496Y-211792243D01*
X143336554Y-211769721D01*
X143346782Y-211748097D01*
X143359079Y-211727580D01*
X143373329Y-211708367D01*
X143389393Y-211690643D01*
X143407117Y-211674579D01*
X143426330Y-211660329D01*
X143446847Y-211648032D01*
X143468471Y-211637804D01*
X143490993Y-211629746D01*
X143514197Y-211623934D01*
X143537858Y-211620424D01*
X143561750Y-211619250D01*
X144474250Y-211619250D01*
X144498142Y-211620424D01*
X144498142Y-211620424D01*
G37*
D20*
X144018000Y-212106750D03*
D19*
G36*
X115796142Y-190092174D02*
G01*
X115819803Y-190095684D01*
X115843007Y-190101496D01*
X115865529Y-190109554D01*
X115887153Y-190119782D01*
X115907670Y-190132079D01*
X115926883Y-190146329D01*
X115944607Y-190162393D01*
X115960671Y-190180117D01*
X115974921Y-190199330D01*
X115987218Y-190219847D01*
X115997446Y-190241471D01*
X116005504Y-190263993D01*
X116011316Y-190287197D01*
X116014826Y-190310858D01*
X116016000Y-190334750D01*
X116016000Y-190822250D01*
X116014826Y-190846142D01*
X116011316Y-190869803D01*
X116005504Y-190893007D01*
X115997446Y-190915529D01*
X115987218Y-190937153D01*
X115974921Y-190957670D01*
X115960671Y-190976883D01*
X115944607Y-190994607D01*
X115926883Y-191010671D01*
X115907670Y-191024921D01*
X115887153Y-191037218D01*
X115865529Y-191047446D01*
X115843007Y-191055504D01*
X115819803Y-191061316D01*
X115796142Y-191064826D01*
X115772250Y-191066000D01*
X114859750Y-191066000D01*
X114835858Y-191064826D01*
X114812197Y-191061316D01*
X114788993Y-191055504D01*
X114766471Y-191047446D01*
X114744847Y-191037218D01*
X114724330Y-191024921D01*
X114705117Y-191010671D01*
X114687393Y-190994607D01*
X114671329Y-190976883D01*
X114657079Y-190957670D01*
X114644782Y-190937153D01*
X114634554Y-190915529D01*
X114626496Y-190893007D01*
X114620684Y-190869803D01*
X114617174Y-190846142D01*
X114616000Y-190822250D01*
X114616000Y-190334750D01*
X114617174Y-190310858D01*
X114620684Y-190287197D01*
X114626496Y-190263993D01*
X114634554Y-190241471D01*
X114644782Y-190219847D01*
X114657079Y-190199330D01*
X114671329Y-190180117D01*
X114687393Y-190162393D01*
X114705117Y-190146329D01*
X114724330Y-190132079D01*
X114744847Y-190119782D01*
X114766471Y-190109554D01*
X114788993Y-190101496D01*
X114812197Y-190095684D01*
X114835858Y-190092174D01*
X114859750Y-190091000D01*
X115772250Y-190091000D01*
X115796142Y-190092174D01*
X115796142Y-190092174D01*
G37*
D20*
X115316000Y-190578500D03*
D19*
G36*
X115796142Y-191967174D02*
G01*
X115819803Y-191970684D01*
X115843007Y-191976496D01*
X115865529Y-191984554D01*
X115887153Y-191994782D01*
X115907670Y-192007079D01*
X115926883Y-192021329D01*
X115944607Y-192037393D01*
X115960671Y-192055117D01*
X115974921Y-192074330D01*
X115987218Y-192094847D01*
X115997446Y-192116471D01*
X116005504Y-192138993D01*
X116011316Y-192162197D01*
X116014826Y-192185858D01*
X116016000Y-192209750D01*
X116016000Y-192697250D01*
X116014826Y-192721142D01*
X116011316Y-192744803D01*
X116005504Y-192768007D01*
X115997446Y-192790529D01*
X115987218Y-192812153D01*
X115974921Y-192832670D01*
X115960671Y-192851883D01*
X115944607Y-192869607D01*
X115926883Y-192885671D01*
X115907670Y-192899921D01*
X115887153Y-192912218D01*
X115865529Y-192922446D01*
X115843007Y-192930504D01*
X115819803Y-192936316D01*
X115796142Y-192939826D01*
X115772250Y-192941000D01*
X114859750Y-192941000D01*
X114835858Y-192939826D01*
X114812197Y-192936316D01*
X114788993Y-192930504D01*
X114766471Y-192922446D01*
X114744847Y-192912218D01*
X114724330Y-192899921D01*
X114705117Y-192885671D01*
X114687393Y-192869607D01*
X114671329Y-192851883D01*
X114657079Y-192832670D01*
X114644782Y-192812153D01*
X114634554Y-192790529D01*
X114626496Y-192768007D01*
X114620684Y-192744803D01*
X114617174Y-192721142D01*
X114616000Y-192697250D01*
X114616000Y-192209750D01*
X114617174Y-192185858D01*
X114620684Y-192162197D01*
X114626496Y-192138993D01*
X114634554Y-192116471D01*
X114644782Y-192094847D01*
X114657079Y-192074330D01*
X114671329Y-192055117D01*
X114687393Y-192037393D01*
X114705117Y-192021329D01*
X114724330Y-192007079D01*
X114744847Y-191994782D01*
X114766471Y-191984554D01*
X114788993Y-191976496D01*
X114812197Y-191970684D01*
X114835858Y-191967174D01*
X114859750Y-191966000D01*
X115772250Y-191966000D01*
X115796142Y-191967174D01*
X115796142Y-191967174D01*
G37*
D20*
X115316000Y-192453500D03*
D19*
G36*
X123416142Y-196412174D02*
G01*
X123439803Y-196415684D01*
X123463007Y-196421496D01*
X123485529Y-196429554D01*
X123507153Y-196439782D01*
X123527670Y-196452079D01*
X123546883Y-196466329D01*
X123564607Y-196482393D01*
X123580671Y-196500117D01*
X123594921Y-196519330D01*
X123607218Y-196539847D01*
X123617446Y-196561471D01*
X123625504Y-196583993D01*
X123631316Y-196607197D01*
X123634826Y-196630858D01*
X123636000Y-196654750D01*
X123636000Y-197142250D01*
X123634826Y-197166142D01*
X123631316Y-197189803D01*
X123625504Y-197213007D01*
X123617446Y-197235529D01*
X123607218Y-197257153D01*
X123594921Y-197277670D01*
X123580671Y-197296883D01*
X123564607Y-197314607D01*
X123546883Y-197330671D01*
X123527670Y-197344921D01*
X123507153Y-197357218D01*
X123485529Y-197367446D01*
X123463007Y-197375504D01*
X123439803Y-197381316D01*
X123416142Y-197384826D01*
X123392250Y-197386000D01*
X122479750Y-197386000D01*
X122455858Y-197384826D01*
X122432197Y-197381316D01*
X122408993Y-197375504D01*
X122386471Y-197367446D01*
X122364847Y-197357218D01*
X122344330Y-197344921D01*
X122325117Y-197330671D01*
X122307393Y-197314607D01*
X122291329Y-197296883D01*
X122277079Y-197277670D01*
X122264782Y-197257153D01*
X122254554Y-197235529D01*
X122246496Y-197213007D01*
X122240684Y-197189803D01*
X122237174Y-197166142D01*
X122236000Y-197142250D01*
X122236000Y-196654750D01*
X122237174Y-196630858D01*
X122240684Y-196607197D01*
X122246496Y-196583993D01*
X122254554Y-196561471D01*
X122264782Y-196539847D01*
X122277079Y-196519330D01*
X122291329Y-196500117D01*
X122307393Y-196482393D01*
X122325117Y-196466329D01*
X122344330Y-196452079D01*
X122364847Y-196439782D01*
X122386471Y-196429554D01*
X122408993Y-196421496D01*
X122432197Y-196415684D01*
X122455858Y-196412174D01*
X122479750Y-196411000D01*
X123392250Y-196411000D01*
X123416142Y-196412174D01*
X123416142Y-196412174D01*
G37*
D20*
X122936000Y-196898500D03*
D19*
G36*
X123416142Y-194537174D02*
G01*
X123439803Y-194540684D01*
X123463007Y-194546496D01*
X123485529Y-194554554D01*
X123507153Y-194564782D01*
X123527670Y-194577079D01*
X123546883Y-194591329D01*
X123564607Y-194607393D01*
X123580671Y-194625117D01*
X123594921Y-194644330D01*
X123607218Y-194664847D01*
X123617446Y-194686471D01*
X123625504Y-194708993D01*
X123631316Y-194732197D01*
X123634826Y-194755858D01*
X123636000Y-194779750D01*
X123636000Y-195267250D01*
X123634826Y-195291142D01*
X123631316Y-195314803D01*
X123625504Y-195338007D01*
X123617446Y-195360529D01*
X123607218Y-195382153D01*
X123594921Y-195402670D01*
X123580671Y-195421883D01*
X123564607Y-195439607D01*
X123546883Y-195455671D01*
X123527670Y-195469921D01*
X123507153Y-195482218D01*
X123485529Y-195492446D01*
X123463007Y-195500504D01*
X123439803Y-195506316D01*
X123416142Y-195509826D01*
X123392250Y-195511000D01*
X122479750Y-195511000D01*
X122455858Y-195509826D01*
X122432197Y-195506316D01*
X122408993Y-195500504D01*
X122386471Y-195492446D01*
X122364847Y-195482218D01*
X122344330Y-195469921D01*
X122325117Y-195455671D01*
X122307393Y-195439607D01*
X122291329Y-195421883D01*
X122277079Y-195402670D01*
X122264782Y-195382153D01*
X122254554Y-195360529D01*
X122246496Y-195338007D01*
X122240684Y-195314803D01*
X122237174Y-195291142D01*
X122236000Y-195267250D01*
X122236000Y-194779750D01*
X122237174Y-194755858D01*
X122240684Y-194732197D01*
X122246496Y-194708993D01*
X122254554Y-194686471D01*
X122264782Y-194664847D01*
X122277079Y-194644330D01*
X122291329Y-194625117D01*
X122307393Y-194607393D01*
X122325117Y-194591329D01*
X122344330Y-194577079D01*
X122364847Y-194564782D01*
X122386471Y-194554554D01*
X122408993Y-194546496D01*
X122432197Y-194540684D01*
X122455858Y-194537174D01*
X122479750Y-194536000D01*
X123392250Y-194536000D01*
X123416142Y-194537174D01*
X123416142Y-194537174D01*
G37*
D20*
X122936000Y-195023500D03*
D19*
G36*
X113637142Y-190092174D02*
G01*
X113660803Y-190095684D01*
X113684007Y-190101496D01*
X113706529Y-190109554D01*
X113728153Y-190119782D01*
X113748670Y-190132079D01*
X113767883Y-190146329D01*
X113785607Y-190162393D01*
X113801671Y-190180117D01*
X113815921Y-190199330D01*
X113828218Y-190219847D01*
X113838446Y-190241471D01*
X113846504Y-190263993D01*
X113852316Y-190287197D01*
X113855826Y-190310858D01*
X113857000Y-190334750D01*
X113857000Y-190822250D01*
X113855826Y-190846142D01*
X113852316Y-190869803D01*
X113846504Y-190893007D01*
X113838446Y-190915529D01*
X113828218Y-190937153D01*
X113815921Y-190957670D01*
X113801671Y-190976883D01*
X113785607Y-190994607D01*
X113767883Y-191010671D01*
X113748670Y-191024921D01*
X113728153Y-191037218D01*
X113706529Y-191047446D01*
X113684007Y-191055504D01*
X113660803Y-191061316D01*
X113637142Y-191064826D01*
X113613250Y-191066000D01*
X112700750Y-191066000D01*
X112676858Y-191064826D01*
X112653197Y-191061316D01*
X112629993Y-191055504D01*
X112607471Y-191047446D01*
X112585847Y-191037218D01*
X112565330Y-191024921D01*
X112546117Y-191010671D01*
X112528393Y-190994607D01*
X112512329Y-190976883D01*
X112498079Y-190957670D01*
X112485782Y-190937153D01*
X112475554Y-190915529D01*
X112467496Y-190893007D01*
X112461684Y-190869803D01*
X112458174Y-190846142D01*
X112457000Y-190822250D01*
X112457000Y-190334750D01*
X112458174Y-190310858D01*
X112461684Y-190287197D01*
X112467496Y-190263993D01*
X112475554Y-190241471D01*
X112485782Y-190219847D01*
X112498079Y-190199330D01*
X112512329Y-190180117D01*
X112528393Y-190162393D01*
X112546117Y-190146329D01*
X112565330Y-190132079D01*
X112585847Y-190119782D01*
X112607471Y-190109554D01*
X112629993Y-190101496D01*
X112653197Y-190095684D01*
X112676858Y-190092174D01*
X112700750Y-190091000D01*
X113613250Y-190091000D01*
X113637142Y-190092174D01*
X113637142Y-190092174D01*
G37*
D20*
X113157000Y-190578500D03*
D19*
G36*
X113637142Y-191967174D02*
G01*
X113660803Y-191970684D01*
X113684007Y-191976496D01*
X113706529Y-191984554D01*
X113728153Y-191994782D01*
X113748670Y-192007079D01*
X113767883Y-192021329D01*
X113785607Y-192037393D01*
X113801671Y-192055117D01*
X113815921Y-192074330D01*
X113828218Y-192094847D01*
X113838446Y-192116471D01*
X113846504Y-192138993D01*
X113852316Y-192162197D01*
X113855826Y-192185858D01*
X113857000Y-192209750D01*
X113857000Y-192697250D01*
X113855826Y-192721142D01*
X113852316Y-192744803D01*
X113846504Y-192768007D01*
X113838446Y-192790529D01*
X113828218Y-192812153D01*
X113815921Y-192832670D01*
X113801671Y-192851883D01*
X113785607Y-192869607D01*
X113767883Y-192885671D01*
X113748670Y-192899921D01*
X113728153Y-192912218D01*
X113706529Y-192922446D01*
X113684007Y-192930504D01*
X113660803Y-192936316D01*
X113637142Y-192939826D01*
X113613250Y-192941000D01*
X112700750Y-192941000D01*
X112676858Y-192939826D01*
X112653197Y-192936316D01*
X112629993Y-192930504D01*
X112607471Y-192922446D01*
X112585847Y-192912218D01*
X112565330Y-192899921D01*
X112546117Y-192885671D01*
X112528393Y-192869607D01*
X112512329Y-192851883D01*
X112498079Y-192832670D01*
X112485782Y-192812153D01*
X112475554Y-192790529D01*
X112467496Y-192768007D01*
X112461684Y-192744803D01*
X112458174Y-192721142D01*
X112457000Y-192697250D01*
X112457000Y-192209750D01*
X112458174Y-192185858D01*
X112461684Y-192162197D01*
X112467496Y-192138993D01*
X112475554Y-192116471D01*
X112485782Y-192094847D01*
X112498079Y-192074330D01*
X112512329Y-192055117D01*
X112528393Y-192037393D01*
X112546117Y-192021329D01*
X112565330Y-192007079D01*
X112585847Y-191994782D01*
X112607471Y-191984554D01*
X112629993Y-191976496D01*
X112653197Y-191970684D01*
X112676858Y-191967174D01*
X112700750Y-191966000D01*
X113613250Y-191966000D01*
X113637142Y-191967174D01*
X113637142Y-191967174D01*
G37*
D20*
X113157000Y-192453500D03*
D19*
G36*
X112790504Y-201430204D02*
G01*
X112814773Y-201433804D01*
X112838571Y-201439765D01*
X112861671Y-201448030D01*
X112883849Y-201458520D01*
X112904893Y-201471133D01*
X112924598Y-201485747D01*
X112942777Y-201502223D01*
X112959253Y-201520402D01*
X112973867Y-201540107D01*
X112986480Y-201561151D01*
X112996970Y-201583329D01*
X113005235Y-201606429D01*
X113011196Y-201630227D01*
X113014796Y-201654496D01*
X113016000Y-201679000D01*
X113016000Y-202429000D01*
X113014796Y-202453504D01*
X113011196Y-202477773D01*
X113005235Y-202501571D01*
X112996970Y-202524671D01*
X112986480Y-202546849D01*
X112973867Y-202567893D01*
X112959253Y-202587598D01*
X112942777Y-202605777D01*
X112924598Y-202622253D01*
X112904893Y-202636867D01*
X112883849Y-202649480D01*
X112861671Y-202659970D01*
X112838571Y-202668235D01*
X112814773Y-202674196D01*
X112790504Y-202677796D01*
X112766000Y-202679000D01*
X111516000Y-202679000D01*
X111491496Y-202677796D01*
X111467227Y-202674196D01*
X111443429Y-202668235D01*
X111420329Y-202659970D01*
X111398151Y-202649480D01*
X111377107Y-202636867D01*
X111357402Y-202622253D01*
X111339223Y-202605777D01*
X111322747Y-202587598D01*
X111308133Y-202567893D01*
X111295520Y-202546849D01*
X111285030Y-202524671D01*
X111276765Y-202501571D01*
X111270804Y-202477773D01*
X111267204Y-202453504D01*
X111266000Y-202429000D01*
X111266000Y-201679000D01*
X111267204Y-201654496D01*
X111270804Y-201630227D01*
X111276765Y-201606429D01*
X111285030Y-201583329D01*
X111295520Y-201561151D01*
X111308133Y-201540107D01*
X111322747Y-201520402D01*
X111339223Y-201502223D01*
X111357402Y-201485747D01*
X111377107Y-201471133D01*
X111398151Y-201458520D01*
X111420329Y-201448030D01*
X111443429Y-201439765D01*
X111467227Y-201433804D01*
X111491496Y-201430204D01*
X111516000Y-201429000D01*
X112766000Y-201429000D01*
X112790504Y-201430204D01*
X112790504Y-201430204D01*
G37*
D21*
X112141000Y-202054000D03*
D19*
G36*
X112790504Y-204230204D02*
G01*
X112814773Y-204233804D01*
X112838571Y-204239765D01*
X112861671Y-204248030D01*
X112883849Y-204258520D01*
X112904893Y-204271133D01*
X112924598Y-204285747D01*
X112942777Y-204302223D01*
X112959253Y-204320402D01*
X112973867Y-204340107D01*
X112986480Y-204361151D01*
X112996970Y-204383329D01*
X113005235Y-204406429D01*
X113011196Y-204430227D01*
X113014796Y-204454496D01*
X113016000Y-204479000D01*
X113016000Y-205229000D01*
X113014796Y-205253504D01*
X113011196Y-205277773D01*
X113005235Y-205301571D01*
X112996970Y-205324671D01*
X112986480Y-205346849D01*
X112973867Y-205367893D01*
X112959253Y-205387598D01*
X112942777Y-205405777D01*
X112924598Y-205422253D01*
X112904893Y-205436867D01*
X112883849Y-205449480D01*
X112861671Y-205459970D01*
X112838571Y-205468235D01*
X112814773Y-205474196D01*
X112790504Y-205477796D01*
X112766000Y-205479000D01*
X111516000Y-205479000D01*
X111491496Y-205477796D01*
X111467227Y-205474196D01*
X111443429Y-205468235D01*
X111420329Y-205459970D01*
X111398151Y-205449480D01*
X111377107Y-205436867D01*
X111357402Y-205422253D01*
X111339223Y-205405777D01*
X111322747Y-205387598D01*
X111308133Y-205367893D01*
X111295520Y-205346849D01*
X111285030Y-205324671D01*
X111276765Y-205301571D01*
X111270804Y-205277773D01*
X111267204Y-205253504D01*
X111266000Y-205229000D01*
X111266000Y-204479000D01*
X111267204Y-204454496D01*
X111270804Y-204430227D01*
X111276765Y-204406429D01*
X111285030Y-204383329D01*
X111295520Y-204361151D01*
X111308133Y-204340107D01*
X111322747Y-204320402D01*
X111339223Y-204302223D01*
X111357402Y-204285747D01*
X111377107Y-204271133D01*
X111398151Y-204258520D01*
X111420329Y-204248030D01*
X111443429Y-204239765D01*
X111467227Y-204233804D01*
X111491496Y-204230204D01*
X111516000Y-204229000D01*
X112766000Y-204229000D01*
X112790504Y-204230204D01*
X112790504Y-204230204D01*
G37*
D21*
X112141000Y-204854000D03*
D19*
G36*
X126464142Y-212033174D02*
G01*
X126487803Y-212036684D01*
X126511007Y-212042496D01*
X126533529Y-212050554D01*
X126555153Y-212060782D01*
X126575670Y-212073079D01*
X126594883Y-212087329D01*
X126612607Y-212103393D01*
X126628671Y-212121117D01*
X126642921Y-212140330D01*
X126655218Y-212160847D01*
X126665446Y-212182471D01*
X126673504Y-212204993D01*
X126679316Y-212228197D01*
X126682826Y-212251858D01*
X126684000Y-212275750D01*
X126684000Y-212763250D01*
X126682826Y-212787142D01*
X126679316Y-212810803D01*
X126673504Y-212834007D01*
X126665446Y-212856529D01*
X126655218Y-212878153D01*
X126642921Y-212898670D01*
X126628671Y-212917883D01*
X126612607Y-212935607D01*
X126594883Y-212951671D01*
X126575670Y-212965921D01*
X126555153Y-212978218D01*
X126533529Y-212988446D01*
X126511007Y-212996504D01*
X126487803Y-213002316D01*
X126464142Y-213005826D01*
X126440250Y-213007000D01*
X125527750Y-213007000D01*
X125503858Y-213005826D01*
X125480197Y-213002316D01*
X125456993Y-212996504D01*
X125434471Y-212988446D01*
X125412847Y-212978218D01*
X125392330Y-212965921D01*
X125373117Y-212951671D01*
X125355393Y-212935607D01*
X125339329Y-212917883D01*
X125325079Y-212898670D01*
X125312782Y-212878153D01*
X125302554Y-212856529D01*
X125294496Y-212834007D01*
X125288684Y-212810803D01*
X125285174Y-212787142D01*
X125284000Y-212763250D01*
X125284000Y-212275750D01*
X125285174Y-212251858D01*
X125288684Y-212228197D01*
X125294496Y-212204993D01*
X125302554Y-212182471D01*
X125312782Y-212160847D01*
X125325079Y-212140330D01*
X125339329Y-212121117D01*
X125355393Y-212103393D01*
X125373117Y-212087329D01*
X125392330Y-212073079D01*
X125412847Y-212060782D01*
X125434471Y-212050554D01*
X125456993Y-212042496D01*
X125480197Y-212036684D01*
X125503858Y-212033174D01*
X125527750Y-212032000D01*
X126440250Y-212032000D01*
X126464142Y-212033174D01*
X126464142Y-212033174D01*
G37*
D20*
X125984000Y-212519500D03*
D19*
G36*
X126464142Y-210158174D02*
G01*
X126487803Y-210161684D01*
X126511007Y-210167496D01*
X126533529Y-210175554D01*
X126555153Y-210185782D01*
X126575670Y-210198079D01*
X126594883Y-210212329D01*
X126612607Y-210228393D01*
X126628671Y-210246117D01*
X126642921Y-210265330D01*
X126655218Y-210285847D01*
X126665446Y-210307471D01*
X126673504Y-210329993D01*
X126679316Y-210353197D01*
X126682826Y-210376858D01*
X126684000Y-210400750D01*
X126684000Y-210888250D01*
X126682826Y-210912142D01*
X126679316Y-210935803D01*
X126673504Y-210959007D01*
X126665446Y-210981529D01*
X126655218Y-211003153D01*
X126642921Y-211023670D01*
X126628671Y-211042883D01*
X126612607Y-211060607D01*
X126594883Y-211076671D01*
X126575670Y-211090921D01*
X126555153Y-211103218D01*
X126533529Y-211113446D01*
X126511007Y-211121504D01*
X126487803Y-211127316D01*
X126464142Y-211130826D01*
X126440250Y-211132000D01*
X125527750Y-211132000D01*
X125503858Y-211130826D01*
X125480197Y-211127316D01*
X125456993Y-211121504D01*
X125434471Y-211113446D01*
X125412847Y-211103218D01*
X125392330Y-211090921D01*
X125373117Y-211076671D01*
X125355393Y-211060607D01*
X125339329Y-211042883D01*
X125325079Y-211023670D01*
X125312782Y-211003153D01*
X125302554Y-210981529D01*
X125294496Y-210959007D01*
X125288684Y-210935803D01*
X125285174Y-210912142D01*
X125284000Y-210888250D01*
X125284000Y-210400750D01*
X125285174Y-210376858D01*
X125288684Y-210353197D01*
X125294496Y-210329993D01*
X125302554Y-210307471D01*
X125312782Y-210285847D01*
X125325079Y-210265330D01*
X125339329Y-210246117D01*
X125355393Y-210228393D01*
X125373117Y-210212329D01*
X125392330Y-210198079D01*
X125412847Y-210185782D01*
X125434471Y-210175554D01*
X125456993Y-210167496D01*
X125480197Y-210161684D01*
X125503858Y-210158174D01*
X125527750Y-210157000D01*
X126440250Y-210157000D01*
X126464142Y-210158174D01*
X126464142Y-210158174D01*
G37*
D20*
X125984000Y-210644500D03*
D19*
G36*
X126972142Y-202538174D02*
G01*
X126995803Y-202541684D01*
X127019007Y-202547496D01*
X127041529Y-202555554D01*
X127063153Y-202565782D01*
X127083670Y-202578079D01*
X127102883Y-202592329D01*
X127120607Y-202608393D01*
X127136671Y-202626117D01*
X127150921Y-202645330D01*
X127163218Y-202665847D01*
X127173446Y-202687471D01*
X127181504Y-202709993D01*
X127187316Y-202733197D01*
X127190826Y-202756858D01*
X127192000Y-202780750D01*
X127192000Y-203268250D01*
X127190826Y-203292142D01*
X127187316Y-203315803D01*
X127181504Y-203339007D01*
X127173446Y-203361529D01*
X127163218Y-203383153D01*
X127150921Y-203403670D01*
X127136671Y-203422883D01*
X127120607Y-203440607D01*
X127102883Y-203456671D01*
X127083670Y-203470921D01*
X127063153Y-203483218D01*
X127041529Y-203493446D01*
X127019007Y-203501504D01*
X126995803Y-203507316D01*
X126972142Y-203510826D01*
X126948250Y-203512000D01*
X126035750Y-203512000D01*
X126011858Y-203510826D01*
X125988197Y-203507316D01*
X125964993Y-203501504D01*
X125942471Y-203493446D01*
X125920847Y-203483218D01*
X125900330Y-203470921D01*
X125881117Y-203456671D01*
X125863393Y-203440607D01*
X125847329Y-203422883D01*
X125833079Y-203403670D01*
X125820782Y-203383153D01*
X125810554Y-203361529D01*
X125802496Y-203339007D01*
X125796684Y-203315803D01*
X125793174Y-203292142D01*
X125792000Y-203268250D01*
X125792000Y-202780750D01*
X125793174Y-202756858D01*
X125796684Y-202733197D01*
X125802496Y-202709993D01*
X125810554Y-202687471D01*
X125820782Y-202665847D01*
X125833079Y-202645330D01*
X125847329Y-202626117D01*
X125863393Y-202608393D01*
X125881117Y-202592329D01*
X125900330Y-202578079D01*
X125920847Y-202565782D01*
X125942471Y-202555554D01*
X125964993Y-202547496D01*
X125988197Y-202541684D01*
X126011858Y-202538174D01*
X126035750Y-202537000D01*
X126948250Y-202537000D01*
X126972142Y-202538174D01*
X126972142Y-202538174D01*
G37*
D20*
X126492000Y-203024500D03*
D19*
G36*
X126972142Y-204413174D02*
G01*
X126995803Y-204416684D01*
X127019007Y-204422496D01*
X127041529Y-204430554D01*
X127063153Y-204440782D01*
X127083670Y-204453079D01*
X127102883Y-204467329D01*
X127120607Y-204483393D01*
X127136671Y-204501117D01*
X127150921Y-204520330D01*
X127163218Y-204540847D01*
X127173446Y-204562471D01*
X127181504Y-204584993D01*
X127187316Y-204608197D01*
X127190826Y-204631858D01*
X127192000Y-204655750D01*
X127192000Y-205143250D01*
X127190826Y-205167142D01*
X127187316Y-205190803D01*
X127181504Y-205214007D01*
X127173446Y-205236529D01*
X127163218Y-205258153D01*
X127150921Y-205278670D01*
X127136671Y-205297883D01*
X127120607Y-205315607D01*
X127102883Y-205331671D01*
X127083670Y-205345921D01*
X127063153Y-205358218D01*
X127041529Y-205368446D01*
X127019007Y-205376504D01*
X126995803Y-205382316D01*
X126972142Y-205385826D01*
X126948250Y-205387000D01*
X126035750Y-205387000D01*
X126011858Y-205385826D01*
X125988197Y-205382316D01*
X125964993Y-205376504D01*
X125942471Y-205368446D01*
X125920847Y-205358218D01*
X125900330Y-205345921D01*
X125881117Y-205331671D01*
X125863393Y-205315607D01*
X125847329Y-205297883D01*
X125833079Y-205278670D01*
X125820782Y-205258153D01*
X125810554Y-205236529D01*
X125802496Y-205214007D01*
X125796684Y-205190803D01*
X125793174Y-205167142D01*
X125792000Y-205143250D01*
X125792000Y-204655750D01*
X125793174Y-204631858D01*
X125796684Y-204608197D01*
X125802496Y-204584993D01*
X125810554Y-204562471D01*
X125820782Y-204540847D01*
X125833079Y-204520330D01*
X125847329Y-204501117D01*
X125863393Y-204483393D01*
X125881117Y-204467329D01*
X125900330Y-204453079D01*
X125920847Y-204440782D01*
X125942471Y-204430554D01*
X125964993Y-204422496D01*
X125988197Y-204416684D01*
X126011858Y-204413174D01*
X126035750Y-204412000D01*
X126948250Y-204412000D01*
X126972142Y-204413174D01*
X126972142Y-204413174D01*
G37*
D20*
X126492000Y-204899500D03*
D19*
G36*
X127861142Y-194537174D02*
G01*
X127884803Y-194540684D01*
X127908007Y-194546496D01*
X127930529Y-194554554D01*
X127952153Y-194564782D01*
X127972670Y-194577079D01*
X127991883Y-194591329D01*
X128009607Y-194607393D01*
X128025671Y-194625117D01*
X128039921Y-194644330D01*
X128052218Y-194664847D01*
X128062446Y-194686471D01*
X128070504Y-194708993D01*
X128076316Y-194732197D01*
X128079826Y-194755858D01*
X128081000Y-194779750D01*
X128081000Y-195267250D01*
X128079826Y-195291142D01*
X128076316Y-195314803D01*
X128070504Y-195338007D01*
X128062446Y-195360529D01*
X128052218Y-195382153D01*
X128039921Y-195402670D01*
X128025671Y-195421883D01*
X128009607Y-195439607D01*
X127991883Y-195455671D01*
X127972670Y-195469921D01*
X127952153Y-195482218D01*
X127930529Y-195492446D01*
X127908007Y-195500504D01*
X127884803Y-195506316D01*
X127861142Y-195509826D01*
X127837250Y-195511000D01*
X126924750Y-195511000D01*
X126900858Y-195509826D01*
X126877197Y-195506316D01*
X126853993Y-195500504D01*
X126831471Y-195492446D01*
X126809847Y-195482218D01*
X126789330Y-195469921D01*
X126770117Y-195455671D01*
X126752393Y-195439607D01*
X126736329Y-195421883D01*
X126722079Y-195402670D01*
X126709782Y-195382153D01*
X126699554Y-195360529D01*
X126691496Y-195338007D01*
X126685684Y-195314803D01*
X126682174Y-195291142D01*
X126681000Y-195267250D01*
X126681000Y-194779750D01*
X126682174Y-194755858D01*
X126685684Y-194732197D01*
X126691496Y-194708993D01*
X126699554Y-194686471D01*
X126709782Y-194664847D01*
X126722079Y-194644330D01*
X126736329Y-194625117D01*
X126752393Y-194607393D01*
X126770117Y-194591329D01*
X126789330Y-194577079D01*
X126809847Y-194564782D01*
X126831471Y-194554554D01*
X126853993Y-194546496D01*
X126877197Y-194540684D01*
X126900858Y-194537174D01*
X126924750Y-194536000D01*
X127837250Y-194536000D01*
X127861142Y-194537174D01*
X127861142Y-194537174D01*
G37*
D20*
X127381000Y-195023500D03*
D19*
G36*
X127861142Y-196412174D02*
G01*
X127884803Y-196415684D01*
X127908007Y-196421496D01*
X127930529Y-196429554D01*
X127952153Y-196439782D01*
X127972670Y-196452079D01*
X127991883Y-196466329D01*
X128009607Y-196482393D01*
X128025671Y-196500117D01*
X128039921Y-196519330D01*
X128052218Y-196539847D01*
X128062446Y-196561471D01*
X128070504Y-196583993D01*
X128076316Y-196607197D01*
X128079826Y-196630858D01*
X128081000Y-196654750D01*
X128081000Y-197142250D01*
X128079826Y-197166142D01*
X128076316Y-197189803D01*
X128070504Y-197213007D01*
X128062446Y-197235529D01*
X128052218Y-197257153D01*
X128039921Y-197277670D01*
X128025671Y-197296883D01*
X128009607Y-197314607D01*
X127991883Y-197330671D01*
X127972670Y-197344921D01*
X127952153Y-197357218D01*
X127930529Y-197367446D01*
X127908007Y-197375504D01*
X127884803Y-197381316D01*
X127861142Y-197384826D01*
X127837250Y-197386000D01*
X126924750Y-197386000D01*
X126900858Y-197384826D01*
X126877197Y-197381316D01*
X126853993Y-197375504D01*
X126831471Y-197367446D01*
X126809847Y-197357218D01*
X126789330Y-197344921D01*
X126770117Y-197330671D01*
X126752393Y-197314607D01*
X126736329Y-197296883D01*
X126722079Y-197277670D01*
X126709782Y-197257153D01*
X126699554Y-197235529D01*
X126691496Y-197213007D01*
X126685684Y-197189803D01*
X126682174Y-197166142D01*
X126681000Y-197142250D01*
X126681000Y-196654750D01*
X126682174Y-196630858D01*
X126685684Y-196607197D01*
X126691496Y-196583993D01*
X126699554Y-196561471D01*
X126709782Y-196539847D01*
X126722079Y-196519330D01*
X126736329Y-196500117D01*
X126752393Y-196482393D01*
X126770117Y-196466329D01*
X126789330Y-196452079D01*
X126809847Y-196439782D01*
X126831471Y-196429554D01*
X126853993Y-196421496D01*
X126877197Y-196415684D01*
X126900858Y-196412174D01*
X126924750Y-196411000D01*
X127837250Y-196411000D01*
X127861142Y-196412174D01*
X127861142Y-196412174D01*
G37*
D20*
X127381000Y-196898500D03*
D19*
G36*
X138522142Y-214947174D02*
G01*
X138545803Y-214950684D01*
X138569007Y-214956496D01*
X138591529Y-214964554D01*
X138613153Y-214974782D01*
X138633670Y-214987079D01*
X138652883Y-215001329D01*
X138670607Y-215017393D01*
X138686671Y-215035117D01*
X138700921Y-215054330D01*
X138713218Y-215074847D01*
X138723446Y-215096471D01*
X138731504Y-215118993D01*
X138737316Y-215142197D01*
X138740826Y-215165858D01*
X138742000Y-215189750D01*
X138742000Y-216102250D01*
X138740826Y-216126142D01*
X138737316Y-216149803D01*
X138731504Y-216173007D01*
X138723446Y-216195529D01*
X138713218Y-216217153D01*
X138700921Y-216237670D01*
X138686671Y-216256883D01*
X138670607Y-216274607D01*
X138652883Y-216290671D01*
X138633670Y-216304921D01*
X138613153Y-216317218D01*
X138591529Y-216327446D01*
X138569007Y-216335504D01*
X138545803Y-216341316D01*
X138522142Y-216344826D01*
X138498250Y-216346000D01*
X138010750Y-216346000D01*
X137986858Y-216344826D01*
X137963197Y-216341316D01*
X137939993Y-216335504D01*
X137917471Y-216327446D01*
X137895847Y-216317218D01*
X137875330Y-216304921D01*
X137856117Y-216290671D01*
X137838393Y-216274607D01*
X137822329Y-216256883D01*
X137808079Y-216237670D01*
X137795782Y-216217153D01*
X137785554Y-216195529D01*
X137777496Y-216173007D01*
X137771684Y-216149803D01*
X137768174Y-216126142D01*
X137767000Y-216102250D01*
X137767000Y-215189750D01*
X137768174Y-215165858D01*
X137771684Y-215142197D01*
X137777496Y-215118993D01*
X137785554Y-215096471D01*
X137795782Y-215074847D01*
X137808079Y-215054330D01*
X137822329Y-215035117D01*
X137838393Y-215017393D01*
X137856117Y-215001329D01*
X137875330Y-214987079D01*
X137895847Y-214974782D01*
X137917471Y-214964554D01*
X137939993Y-214956496D01*
X137963197Y-214950684D01*
X137986858Y-214947174D01*
X138010750Y-214946000D01*
X138498250Y-214946000D01*
X138522142Y-214947174D01*
X138522142Y-214947174D01*
G37*
D20*
X138254500Y-215646000D03*
D19*
G36*
X140397142Y-214947174D02*
G01*
X140420803Y-214950684D01*
X140444007Y-214956496D01*
X140466529Y-214964554D01*
X140488153Y-214974782D01*
X140508670Y-214987079D01*
X140527883Y-215001329D01*
X140545607Y-215017393D01*
X140561671Y-215035117D01*
X140575921Y-215054330D01*
X140588218Y-215074847D01*
X140598446Y-215096471D01*
X140606504Y-215118993D01*
X140612316Y-215142197D01*
X140615826Y-215165858D01*
X140617000Y-215189750D01*
X140617000Y-216102250D01*
X140615826Y-216126142D01*
X140612316Y-216149803D01*
X140606504Y-216173007D01*
X140598446Y-216195529D01*
X140588218Y-216217153D01*
X140575921Y-216237670D01*
X140561671Y-216256883D01*
X140545607Y-216274607D01*
X140527883Y-216290671D01*
X140508670Y-216304921D01*
X140488153Y-216317218D01*
X140466529Y-216327446D01*
X140444007Y-216335504D01*
X140420803Y-216341316D01*
X140397142Y-216344826D01*
X140373250Y-216346000D01*
X139885750Y-216346000D01*
X139861858Y-216344826D01*
X139838197Y-216341316D01*
X139814993Y-216335504D01*
X139792471Y-216327446D01*
X139770847Y-216317218D01*
X139750330Y-216304921D01*
X139731117Y-216290671D01*
X139713393Y-216274607D01*
X139697329Y-216256883D01*
X139683079Y-216237670D01*
X139670782Y-216217153D01*
X139660554Y-216195529D01*
X139652496Y-216173007D01*
X139646684Y-216149803D01*
X139643174Y-216126142D01*
X139642000Y-216102250D01*
X139642000Y-215189750D01*
X139643174Y-215165858D01*
X139646684Y-215142197D01*
X139652496Y-215118993D01*
X139660554Y-215096471D01*
X139670782Y-215074847D01*
X139683079Y-215054330D01*
X139697329Y-215035117D01*
X139713393Y-215017393D01*
X139731117Y-215001329D01*
X139750330Y-214987079D01*
X139770847Y-214974782D01*
X139792471Y-214964554D01*
X139814993Y-214956496D01*
X139838197Y-214950684D01*
X139861858Y-214947174D01*
X139885750Y-214946000D01*
X140373250Y-214946000D01*
X140397142Y-214947174D01*
X140397142Y-214947174D01*
G37*
D20*
X140129500Y-215646000D03*
D19*
G36*
X144498142Y-199744174D02*
G01*
X144521803Y-199747684D01*
X144545007Y-199753496D01*
X144567529Y-199761554D01*
X144589153Y-199771782D01*
X144609670Y-199784079D01*
X144628883Y-199798329D01*
X144646607Y-199814393D01*
X144662671Y-199832117D01*
X144676921Y-199851330D01*
X144689218Y-199871847D01*
X144699446Y-199893471D01*
X144707504Y-199915993D01*
X144713316Y-199939197D01*
X144716826Y-199962858D01*
X144718000Y-199986750D01*
X144718000Y-200474250D01*
X144716826Y-200498142D01*
X144713316Y-200521803D01*
X144707504Y-200545007D01*
X144699446Y-200567529D01*
X144689218Y-200589153D01*
X144676921Y-200609670D01*
X144662671Y-200628883D01*
X144646607Y-200646607D01*
X144628883Y-200662671D01*
X144609670Y-200676921D01*
X144589153Y-200689218D01*
X144567529Y-200699446D01*
X144545007Y-200707504D01*
X144521803Y-200713316D01*
X144498142Y-200716826D01*
X144474250Y-200718000D01*
X143561750Y-200718000D01*
X143537858Y-200716826D01*
X143514197Y-200713316D01*
X143490993Y-200707504D01*
X143468471Y-200699446D01*
X143446847Y-200689218D01*
X143426330Y-200676921D01*
X143407117Y-200662671D01*
X143389393Y-200646607D01*
X143373329Y-200628883D01*
X143359079Y-200609670D01*
X143346782Y-200589153D01*
X143336554Y-200567529D01*
X143328496Y-200545007D01*
X143322684Y-200521803D01*
X143319174Y-200498142D01*
X143318000Y-200474250D01*
X143318000Y-199986750D01*
X143319174Y-199962858D01*
X143322684Y-199939197D01*
X143328496Y-199915993D01*
X143336554Y-199893471D01*
X143346782Y-199871847D01*
X143359079Y-199851330D01*
X143373329Y-199832117D01*
X143389393Y-199814393D01*
X143407117Y-199798329D01*
X143426330Y-199784079D01*
X143446847Y-199771782D01*
X143468471Y-199761554D01*
X143490993Y-199753496D01*
X143514197Y-199747684D01*
X143537858Y-199744174D01*
X143561750Y-199743000D01*
X144474250Y-199743000D01*
X144498142Y-199744174D01*
X144498142Y-199744174D01*
G37*
D20*
X144018000Y-200230500D03*
D19*
G36*
X144498142Y-201619174D02*
G01*
X144521803Y-201622684D01*
X144545007Y-201628496D01*
X144567529Y-201636554D01*
X144589153Y-201646782D01*
X144609670Y-201659079D01*
X144628883Y-201673329D01*
X144646607Y-201689393D01*
X144662671Y-201707117D01*
X144676921Y-201726330D01*
X144689218Y-201746847D01*
X144699446Y-201768471D01*
X144707504Y-201790993D01*
X144713316Y-201814197D01*
X144716826Y-201837858D01*
X144718000Y-201861750D01*
X144718000Y-202349250D01*
X144716826Y-202373142D01*
X144713316Y-202396803D01*
X144707504Y-202420007D01*
X144699446Y-202442529D01*
X144689218Y-202464153D01*
X144676921Y-202484670D01*
X144662671Y-202503883D01*
X144646607Y-202521607D01*
X144628883Y-202537671D01*
X144609670Y-202551921D01*
X144589153Y-202564218D01*
X144567529Y-202574446D01*
X144545007Y-202582504D01*
X144521803Y-202588316D01*
X144498142Y-202591826D01*
X144474250Y-202593000D01*
X143561750Y-202593000D01*
X143537858Y-202591826D01*
X143514197Y-202588316D01*
X143490993Y-202582504D01*
X143468471Y-202574446D01*
X143446847Y-202564218D01*
X143426330Y-202551921D01*
X143407117Y-202537671D01*
X143389393Y-202521607D01*
X143373329Y-202503883D01*
X143359079Y-202484670D01*
X143346782Y-202464153D01*
X143336554Y-202442529D01*
X143328496Y-202420007D01*
X143322684Y-202396803D01*
X143319174Y-202373142D01*
X143318000Y-202349250D01*
X143318000Y-201861750D01*
X143319174Y-201837858D01*
X143322684Y-201814197D01*
X143328496Y-201790993D01*
X143336554Y-201768471D01*
X143346782Y-201746847D01*
X143359079Y-201726330D01*
X143373329Y-201707117D01*
X143389393Y-201689393D01*
X143407117Y-201673329D01*
X143426330Y-201659079D01*
X143446847Y-201646782D01*
X143468471Y-201636554D01*
X143490993Y-201628496D01*
X143514197Y-201622684D01*
X143537858Y-201619174D01*
X143561750Y-201618000D01*
X144474250Y-201618000D01*
X144498142Y-201619174D01*
X144498142Y-201619174D01*
G37*
D20*
X144018000Y-202105500D03*
D19*
G36*
X132052142Y-195396174D02*
G01*
X132075803Y-195399684D01*
X132099007Y-195405496D01*
X132121529Y-195413554D01*
X132143153Y-195423782D01*
X132163670Y-195436079D01*
X132182883Y-195450329D01*
X132200607Y-195466393D01*
X132216671Y-195484117D01*
X132230921Y-195503330D01*
X132243218Y-195523847D01*
X132253446Y-195545471D01*
X132261504Y-195567993D01*
X132267316Y-195591197D01*
X132270826Y-195614858D01*
X132272000Y-195638750D01*
X132272000Y-196126250D01*
X132270826Y-196150142D01*
X132267316Y-196173803D01*
X132261504Y-196197007D01*
X132253446Y-196219529D01*
X132243218Y-196241153D01*
X132230921Y-196261670D01*
X132216671Y-196280883D01*
X132200607Y-196298607D01*
X132182883Y-196314671D01*
X132163670Y-196328921D01*
X132143153Y-196341218D01*
X132121529Y-196351446D01*
X132099007Y-196359504D01*
X132075803Y-196365316D01*
X132052142Y-196368826D01*
X132028250Y-196370000D01*
X131115750Y-196370000D01*
X131091858Y-196368826D01*
X131068197Y-196365316D01*
X131044993Y-196359504D01*
X131022471Y-196351446D01*
X131000847Y-196341218D01*
X130980330Y-196328921D01*
X130961117Y-196314671D01*
X130943393Y-196298607D01*
X130927329Y-196280883D01*
X130913079Y-196261670D01*
X130900782Y-196241153D01*
X130890554Y-196219529D01*
X130882496Y-196197007D01*
X130876684Y-196173803D01*
X130873174Y-196150142D01*
X130872000Y-196126250D01*
X130872000Y-195638750D01*
X130873174Y-195614858D01*
X130876684Y-195591197D01*
X130882496Y-195567993D01*
X130890554Y-195545471D01*
X130900782Y-195523847D01*
X130913079Y-195503330D01*
X130927329Y-195484117D01*
X130943393Y-195466393D01*
X130961117Y-195450329D01*
X130980330Y-195436079D01*
X131000847Y-195423782D01*
X131022471Y-195413554D01*
X131044993Y-195405496D01*
X131068197Y-195399684D01*
X131091858Y-195396174D01*
X131115750Y-195395000D01*
X132028250Y-195395000D01*
X132052142Y-195396174D01*
X132052142Y-195396174D01*
G37*
D20*
X131572000Y-195882500D03*
D19*
G36*
X132052142Y-193521174D02*
G01*
X132075803Y-193524684D01*
X132099007Y-193530496D01*
X132121529Y-193538554D01*
X132143153Y-193548782D01*
X132163670Y-193561079D01*
X132182883Y-193575329D01*
X132200607Y-193591393D01*
X132216671Y-193609117D01*
X132230921Y-193628330D01*
X132243218Y-193648847D01*
X132253446Y-193670471D01*
X132261504Y-193692993D01*
X132267316Y-193716197D01*
X132270826Y-193739858D01*
X132272000Y-193763750D01*
X132272000Y-194251250D01*
X132270826Y-194275142D01*
X132267316Y-194298803D01*
X132261504Y-194322007D01*
X132253446Y-194344529D01*
X132243218Y-194366153D01*
X132230921Y-194386670D01*
X132216671Y-194405883D01*
X132200607Y-194423607D01*
X132182883Y-194439671D01*
X132163670Y-194453921D01*
X132143153Y-194466218D01*
X132121529Y-194476446D01*
X132099007Y-194484504D01*
X132075803Y-194490316D01*
X132052142Y-194493826D01*
X132028250Y-194495000D01*
X131115750Y-194495000D01*
X131091858Y-194493826D01*
X131068197Y-194490316D01*
X131044993Y-194484504D01*
X131022471Y-194476446D01*
X131000847Y-194466218D01*
X130980330Y-194453921D01*
X130961117Y-194439671D01*
X130943393Y-194423607D01*
X130927329Y-194405883D01*
X130913079Y-194386670D01*
X130900782Y-194366153D01*
X130890554Y-194344529D01*
X130882496Y-194322007D01*
X130876684Y-194298803D01*
X130873174Y-194275142D01*
X130872000Y-194251250D01*
X130872000Y-193763750D01*
X130873174Y-193739858D01*
X130876684Y-193716197D01*
X130882496Y-193692993D01*
X130890554Y-193670471D01*
X130900782Y-193648847D01*
X130913079Y-193628330D01*
X130927329Y-193609117D01*
X130943393Y-193591393D01*
X130961117Y-193575329D01*
X130980330Y-193561079D01*
X131000847Y-193548782D01*
X131022471Y-193538554D01*
X131044993Y-193530496D01*
X131068197Y-193524684D01*
X131091858Y-193521174D01*
X131115750Y-193520000D01*
X132028250Y-193520000D01*
X132052142Y-193521174D01*
X132052142Y-193521174D01*
G37*
D20*
X131572000Y-194007500D03*
D19*
G36*
X139799142Y-195427924D02*
G01*
X139822803Y-195431434D01*
X139846007Y-195437246D01*
X139868529Y-195445304D01*
X139890153Y-195455532D01*
X139910670Y-195467829D01*
X139929883Y-195482079D01*
X139947607Y-195498143D01*
X139963671Y-195515867D01*
X139977921Y-195535080D01*
X139990218Y-195555597D01*
X140000446Y-195577221D01*
X140008504Y-195599743D01*
X140014316Y-195622947D01*
X140017826Y-195646608D01*
X140019000Y-195670500D01*
X140019000Y-196158000D01*
X140017826Y-196181892D01*
X140014316Y-196205553D01*
X140008504Y-196228757D01*
X140000446Y-196251279D01*
X139990218Y-196272903D01*
X139977921Y-196293420D01*
X139963671Y-196312633D01*
X139947607Y-196330357D01*
X139929883Y-196346421D01*
X139910670Y-196360671D01*
X139890153Y-196372968D01*
X139868529Y-196383196D01*
X139846007Y-196391254D01*
X139822803Y-196397066D01*
X139799142Y-196400576D01*
X139775250Y-196401750D01*
X138862750Y-196401750D01*
X138838858Y-196400576D01*
X138815197Y-196397066D01*
X138791993Y-196391254D01*
X138769471Y-196383196D01*
X138747847Y-196372968D01*
X138727330Y-196360671D01*
X138708117Y-196346421D01*
X138690393Y-196330357D01*
X138674329Y-196312633D01*
X138660079Y-196293420D01*
X138647782Y-196272903D01*
X138637554Y-196251279D01*
X138629496Y-196228757D01*
X138623684Y-196205553D01*
X138620174Y-196181892D01*
X138619000Y-196158000D01*
X138619000Y-195670500D01*
X138620174Y-195646608D01*
X138623684Y-195622947D01*
X138629496Y-195599743D01*
X138637554Y-195577221D01*
X138647782Y-195555597D01*
X138660079Y-195535080D01*
X138674329Y-195515867D01*
X138690393Y-195498143D01*
X138708117Y-195482079D01*
X138727330Y-195467829D01*
X138747847Y-195455532D01*
X138769471Y-195445304D01*
X138791993Y-195437246D01*
X138815197Y-195431434D01*
X138838858Y-195427924D01*
X138862750Y-195426750D01*
X139775250Y-195426750D01*
X139799142Y-195427924D01*
X139799142Y-195427924D01*
G37*
D20*
X139319000Y-195914250D03*
D19*
G36*
X139799142Y-193552924D02*
G01*
X139822803Y-193556434D01*
X139846007Y-193562246D01*
X139868529Y-193570304D01*
X139890153Y-193580532D01*
X139910670Y-193592829D01*
X139929883Y-193607079D01*
X139947607Y-193623143D01*
X139963671Y-193640867D01*
X139977921Y-193660080D01*
X139990218Y-193680597D01*
X140000446Y-193702221D01*
X140008504Y-193724743D01*
X140014316Y-193747947D01*
X140017826Y-193771608D01*
X140019000Y-193795500D01*
X140019000Y-194283000D01*
X140017826Y-194306892D01*
X140014316Y-194330553D01*
X140008504Y-194353757D01*
X140000446Y-194376279D01*
X139990218Y-194397903D01*
X139977921Y-194418420D01*
X139963671Y-194437633D01*
X139947607Y-194455357D01*
X139929883Y-194471421D01*
X139910670Y-194485671D01*
X139890153Y-194497968D01*
X139868529Y-194508196D01*
X139846007Y-194516254D01*
X139822803Y-194522066D01*
X139799142Y-194525576D01*
X139775250Y-194526750D01*
X138862750Y-194526750D01*
X138838858Y-194525576D01*
X138815197Y-194522066D01*
X138791993Y-194516254D01*
X138769471Y-194508196D01*
X138747847Y-194497968D01*
X138727330Y-194485671D01*
X138708117Y-194471421D01*
X138690393Y-194455357D01*
X138674329Y-194437633D01*
X138660079Y-194418420D01*
X138647782Y-194397903D01*
X138637554Y-194376279D01*
X138629496Y-194353757D01*
X138623684Y-194330553D01*
X138620174Y-194306892D01*
X138619000Y-194283000D01*
X138619000Y-193795500D01*
X138620174Y-193771608D01*
X138623684Y-193747947D01*
X138629496Y-193724743D01*
X138637554Y-193702221D01*
X138647782Y-193680597D01*
X138660079Y-193660080D01*
X138674329Y-193640867D01*
X138690393Y-193623143D01*
X138708117Y-193607079D01*
X138727330Y-193592829D01*
X138747847Y-193580532D01*
X138769471Y-193570304D01*
X138791993Y-193562246D01*
X138815197Y-193556434D01*
X138838858Y-193552924D01*
X138862750Y-193551750D01*
X139775250Y-193551750D01*
X139799142Y-193552924D01*
X139799142Y-193552924D01*
G37*
D20*
X139319000Y-194039250D03*
D22*
X145717500Y-202105500D03*
X127959250Y-209352750D03*
X125349000Y-195072000D03*
X141478000Y-215646000D03*
X127959250Y-205034750D03*
X120015000Y-215646000D03*
X120015000Y-197993000D03*
D23*
X116249250Y-187175500D02*
X117348000Y-188274250D01*
X116249250Y-186300500D02*
X116249250Y-187175500D01*
X117348000Y-188274250D02*
X117348000Y-198501000D01*
X125799750Y-206952750D02*
X128847750Y-206952750D01*
X128847750Y-206952750D02*
X129618500Y-206952750D01*
X128487500Y-206952750D02*
X128847750Y-206952750D01*
X107823000Y-214884000D02*
X106553000Y-216154000D01*
X106553000Y-216154000D02*
X106553000Y-219456000D01*
X106553000Y-219456000D02*
X107768000Y-220671000D01*
X118237000Y-214884000D02*
X107823000Y-214884000D01*
X107768000Y-220671000D02*
X109168000Y-220671000D01*
X120601500Y-212519500D02*
X118237000Y-214884000D01*
X125984000Y-212519500D02*
X120601500Y-212519500D01*
X138254500Y-216867500D02*
X138254500Y-215646000D01*
X144018000Y-215646000D02*
X141986000Y-217678000D01*
X139065000Y-217678000D02*
X138254500Y-216867500D01*
X141986000Y-217678000D02*
X139065000Y-217678000D01*
X144018000Y-212106750D02*
X144018000Y-215646000D01*
X126492000Y-203024500D02*
X124762500Y-203024500D01*
X123317000Y-204470000D02*
X125799750Y-206952750D01*
X124762500Y-203024500D02*
X123317000Y-204470000D01*
X117348000Y-198501000D02*
X123317000Y-204470000D01*
X142149500Y-202152750D02*
X141018500Y-202152750D01*
X142494000Y-200533000D02*
X142494000Y-201808250D01*
X142796500Y-200230500D02*
X142494000Y-200533000D01*
X142494000Y-201808250D02*
X142149500Y-202152750D01*
X144018000Y-200230500D02*
X142796500Y-200230500D01*
X133718500Y-198809828D02*
X132447662Y-197538990D01*
X133718500Y-200452750D02*
X133718500Y-198809828D01*
X131772010Y-197538990D02*
X131826000Y-197485000D01*
X132447662Y-197538990D02*
X131772010Y-197538990D01*
X131772010Y-197538990D02*
X129896490Y-197538990D01*
X136601250Y-194039250D02*
X136513750Y-194126750D01*
X139319000Y-194039250D02*
X136601250Y-194039250D01*
X134616652Y-195826750D02*
X134313750Y-195826750D01*
X136316652Y-194126750D02*
X134616652Y-195826750D01*
X136513750Y-194126750D02*
X136316652Y-194126750D01*
X129794000Y-195453000D02*
X130223500Y-195882500D01*
X129794000Y-193167000D02*
X129794000Y-195453000D01*
X130223500Y-195882500D02*
X131572000Y-195882500D01*
X130810000Y-192151000D02*
X129794000Y-193167000D01*
X135519000Y-192151000D02*
X130810000Y-192151000D01*
X136513750Y-193145750D02*
X135519000Y-192151000D01*
X136513750Y-194126750D02*
X136513750Y-193145750D01*
X134287500Y-202152750D02*
X133718500Y-201583750D01*
X133718500Y-201583750D02*
X133718500Y-200452750D01*
X135477750Y-202224500D02*
X135477750Y-202152750D01*
X129618500Y-206952750D02*
X130749500Y-206952750D01*
X135477750Y-202152750D02*
X134287500Y-202152750D01*
X141018500Y-202152750D02*
X135477750Y-202152750D01*
X132118500Y-211852750D02*
X132118500Y-206032500D01*
X132118500Y-206032500D02*
X131894125Y-205808125D01*
X130749500Y-206952750D02*
X131894125Y-205808125D01*
X132779375Y-204982625D02*
X132719625Y-204982625D01*
X138518500Y-210721750D02*
X132779375Y-204982625D01*
X138518500Y-211852750D02*
X138518500Y-210721750D01*
X132719625Y-204982625D02*
X135477750Y-202224500D01*
X131894125Y-205808125D02*
X132719625Y-204982625D01*
X127659509Y-214195009D02*
X126540237Y-213075737D01*
X130928913Y-214195009D02*
X127659509Y-214195009D01*
X126540237Y-213075737D02*
X125984000Y-212519500D01*
X132118500Y-213005422D02*
X130928913Y-214195009D01*
X132118500Y-211852750D02*
X132118500Y-213005422D01*
X138518500Y-212983750D02*
X138518500Y-211852750D01*
X138518500Y-214582000D02*
X138518500Y-212983750D01*
X138254500Y-214846000D02*
X138518500Y-214582000D01*
X138254500Y-215646000D02*
X138254500Y-214846000D01*
X129794000Y-195580000D02*
X128865750Y-196508250D01*
X129794000Y-195453000D02*
X129794000Y-195580000D01*
X128865750Y-196508250D02*
X127381000Y-195023500D01*
X129896490Y-197538990D02*
X128865750Y-196508250D01*
X112141000Y-204854000D02*
X115954000Y-204854000D01*
X121744500Y-210644500D02*
X125984000Y-210644500D01*
X115954000Y-204854000D02*
X121744500Y-210644500D01*
X127275750Y-209352750D02*
X125984000Y-210644500D01*
X140129500Y-215646000D02*
X140129500Y-214170500D01*
X139318500Y-213359500D02*
X139318500Y-211852750D01*
X140129500Y-214170500D02*
X139318500Y-213359500D01*
X125905500Y-196898500D02*
X127381000Y-196898500D01*
X122936000Y-195023500D02*
X124030500Y-195023500D01*
X128602500Y-198120000D02*
X132207000Y-198120000D01*
X132918500Y-198831500D02*
X132918500Y-200452750D01*
X132207000Y-198120000D02*
X132918500Y-198831500D01*
X127381000Y-196898500D02*
X128602500Y-198120000D01*
X143170750Y-202952750D02*
X141018500Y-202952750D01*
X144018000Y-202105500D02*
X143170750Y-202952750D01*
X144018000Y-202105500D02*
X145717500Y-202105500D01*
X131318500Y-212983750D02*
X131318000Y-212984250D01*
X131318500Y-211852750D02*
X131318500Y-212983750D01*
X131318000Y-212984250D02*
X131312750Y-212984250D01*
X131312750Y-212984250D02*
X130683000Y-213614000D01*
X130683000Y-213614000D02*
X128524000Y-213614000D01*
X128524000Y-213614000D02*
X127959250Y-213049250D01*
X127959250Y-213049250D02*
X127959250Y-209352750D01*
X127959250Y-209352750D02*
X127275750Y-209352750D01*
X129618500Y-209352750D02*
X127959250Y-209352750D01*
X124949001Y-195471999D02*
X124714000Y-195707000D01*
X125349000Y-195072000D02*
X124949001Y-195471999D01*
X124714000Y-195707000D02*
X125905500Y-196898500D01*
X124030500Y-195023500D02*
X124714000Y-195707000D01*
X140129500Y-215646000D02*
X141478000Y-215646000D01*
X128277250Y-205352750D02*
X127959250Y-205034750D01*
X129618500Y-205352750D02*
X128277250Y-205352750D01*
D24*
X451069000Y-166496000D02*
X450215000Y-166496000D01*
X452374901Y-167801901D02*
X451069000Y-166496000D01*
X469115000Y-166496000D02*
X467809099Y-167801901D01*
X467809099Y-167801901D02*
X452374901Y-167801901D01*
X469265000Y-166496000D02*
X469115000Y-166496000D01*
X414274901Y-167801901D02*
X412969000Y-166496000D01*
X446498061Y-167801901D02*
X414274901Y-167801901D01*
X412969000Y-166496000D02*
X412115000Y-166496000D01*
X447803962Y-166496000D02*
X446498061Y-167801901D01*
X450215000Y-166496000D02*
X447803962Y-166496000D01*
X395224901Y-167801901D02*
X393919000Y-166496000D01*
X393919000Y-166496000D02*
X393065000Y-166496000D01*
X409955099Y-167801901D02*
X395224901Y-167801901D01*
X411261000Y-166496000D02*
X409955099Y-167801901D01*
X412115000Y-166496000D02*
X411261000Y-166496000D01*
X376174901Y-167801901D02*
X374869000Y-166496000D01*
X389348061Y-167801901D02*
X376174901Y-167801901D01*
X390653962Y-166496000D02*
X389348061Y-167801901D01*
X374869000Y-166496000D02*
X374015000Y-166496000D01*
X393065000Y-166496000D02*
X390653962Y-166496000D01*
X355819000Y-166496000D02*
X354965000Y-166496000D01*
X357124901Y-167801901D02*
X355819000Y-166496000D01*
X371855099Y-167801901D02*
X357124901Y-167801901D01*
X373161000Y-166496000D02*
X371855099Y-167801901D01*
X374015000Y-166496000D02*
X373161000Y-166496000D01*
X336769000Y-166496000D02*
X335915000Y-166496000D01*
X338074901Y-167801901D02*
X336769000Y-166496000D01*
X353509099Y-167801901D02*
X338074901Y-167801901D01*
X354815000Y-166496000D02*
X353509099Y-167801901D01*
X354965000Y-166496000D02*
X354815000Y-166496000D01*
X317719000Y-166496000D02*
X316865000Y-166496000D01*
X319024901Y-167801901D02*
X317719000Y-166496000D01*
X332198061Y-167801901D02*
X319024901Y-167801901D01*
X333503962Y-166496000D02*
X332198061Y-167801901D01*
X335915000Y-166496000D02*
X333503962Y-166496000D01*
X314705099Y-167801901D02*
X299974901Y-167801901D01*
X299974901Y-167801901D02*
X298669000Y-166496000D01*
X316011000Y-166496000D02*
X314705099Y-167801901D01*
X298669000Y-166496000D02*
X297815000Y-166496000D01*
X316865000Y-166496000D02*
X316011000Y-166496000D01*
X280924901Y-167801901D02*
X279619000Y-166496000D01*
X295655099Y-167801901D02*
X280924901Y-167801901D01*
X279619000Y-166496000D02*
X278765000Y-166496000D01*
X296961000Y-166496000D02*
X295655099Y-167801901D01*
X297815000Y-166496000D02*
X296961000Y-166496000D01*
X260569000Y-166496000D02*
X259715000Y-166496000D01*
X277309099Y-167801901D02*
X261874901Y-167801901D01*
X261874901Y-167801901D02*
X260569000Y-166496000D01*
X278615000Y-166496000D02*
X277309099Y-167801901D01*
X278765000Y-166496000D02*
X278615000Y-166496000D01*
X241519000Y-166496000D02*
X240665000Y-166496000D01*
X242824901Y-167801901D02*
X241519000Y-166496000D01*
X257555099Y-167801901D02*
X242824901Y-167801901D01*
X258861000Y-166496000D02*
X257555099Y-167801901D01*
X259715000Y-166496000D02*
X258861000Y-166496000D01*
X223774901Y-167801901D02*
X222469000Y-166496000D01*
X222469000Y-166496000D02*
X221615000Y-166496000D01*
X236948061Y-167801901D02*
X223774901Y-167801901D01*
X238253962Y-166496000D02*
X236948061Y-167801901D01*
X240665000Y-166496000D02*
X238253962Y-166496000D01*
X203707000Y-166496000D02*
X202565000Y-166496000D01*
X205012901Y-167801901D02*
X203707000Y-166496000D01*
X217898061Y-167801901D02*
X205012901Y-167801901D01*
X219203962Y-166496000D02*
X217898061Y-167801901D01*
X221615000Y-166496000D02*
X219203962Y-166496000D01*
X184369000Y-166496000D02*
X183515000Y-166496000D01*
X201109099Y-167801901D02*
X185674901Y-167801901D01*
X185674901Y-167801901D02*
X184369000Y-166496000D01*
X202415000Y-166496000D02*
X201109099Y-167801901D01*
X202565000Y-166496000D02*
X202415000Y-166496000D01*
X183515000Y-166496000D02*
X183365000Y-166496000D01*
X402463000Y-147446000D02*
X402613000Y-147446000D01*
X469415000Y-166496000D02*
X472059000Y-163852000D01*
X469265000Y-166496000D02*
X469415000Y-166496000D01*
X472059000Y-163852000D02*
X472059000Y-162179000D01*
X457326000Y-147446000D02*
X402717000Y-147446000D01*
X472059000Y-162179000D02*
X457326000Y-147446000D01*
X138474527Y-219103530D02*
X142576473Y-219103530D01*
X136118500Y-216747503D02*
X138474527Y-219103530D01*
X142576473Y-219103530D02*
X158877000Y-202803003D01*
X136118500Y-211852750D02*
X136118500Y-216747503D01*
X158877000Y-202803003D02*
X158877000Y-175514000D01*
X182661000Y-166496000D02*
X178215000Y-170942000D01*
X183515000Y-166496000D02*
X182661000Y-166496000D01*
X163449000Y-170942000D02*
X158877000Y-175514000D01*
X178215000Y-170942000D02*
X163449000Y-170942000D01*
X452374901Y-186851901D02*
X451069000Y-185546000D01*
X467809099Y-186851901D02*
X452374901Y-186851901D01*
X451069000Y-185546000D02*
X450215000Y-185546000D01*
X469115000Y-185546000D02*
X467809099Y-186851901D01*
X469265000Y-185546000D02*
X469115000Y-185546000D01*
X412969000Y-185546000D02*
X412115000Y-185546000D01*
X414274901Y-186851901D02*
X412969000Y-185546000D01*
X449361000Y-185546000D02*
X448055099Y-186851901D01*
X448055099Y-186851901D02*
X414274901Y-186851901D01*
X450215000Y-185546000D02*
X449361000Y-185546000D01*
X393919000Y-185546000D02*
X393065000Y-185546000D01*
X395224901Y-186851901D02*
X393919000Y-185546000D01*
X411261000Y-185546000D02*
X409955099Y-186851901D01*
X409955099Y-186851901D02*
X395224901Y-186851901D01*
X412115000Y-185546000D02*
X411261000Y-185546000D01*
X374869000Y-185546000D02*
X374015000Y-185546000D01*
X390905099Y-186851901D02*
X376174901Y-186851901D01*
X392211000Y-185546000D02*
X390905099Y-186851901D01*
X376174901Y-186851901D02*
X374869000Y-185546000D01*
X393065000Y-185546000D02*
X392211000Y-185546000D01*
X357124901Y-186851901D02*
X355819000Y-185546000D01*
X372559099Y-186851901D02*
X357124901Y-186851901D01*
X373865000Y-185546000D02*
X372559099Y-186851901D01*
X355819000Y-185546000D02*
X354965000Y-185546000D01*
X374015000Y-185546000D02*
X373865000Y-185546000D01*
X338074901Y-186851901D02*
X336769000Y-185546000D01*
X352805099Y-186851901D02*
X338074901Y-186851901D01*
X336769000Y-185546000D02*
X335915000Y-185546000D01*
X354111000Y-185546000D02*
X352805099Y-186851901D01*
X354965000Y-185546000D02*
X354111000Y-185546000D01*
X335061000Y-185546000D02*
X335915000Y-185546000D01*
X333755099Y-186851901D02*
X335061000Y-185546000D01*
X319024901Y-186851901D02*
X333755099Y-186851901D01*
X317719000Y-185546000D02*
X319024901Y-186851901D01*
X316865000Y-185546000D02*
X317719000Y-185546000D01*
X298669000Y-185546000D02*
X297815000Y-185546000D01*
X299974901Y-186851901D02*
X298669000Y-185546000D01*
X313148061Y-186851901D02*
X299974901Y-186851901D01*
X314453962Y-185546000D02*
X313148061Y-186851901D01*
X316865000Y-185546000D02*
X314453962Y-185546000D01*
X279619000Y-185546000D02*
X278765000Y-185546000D01*
X280924901Y-186851901D02*
X279619000Y-185546000D01*
X295655099Y-186851901D02*
X280924901Y-186851901D01*
X296961000Y-185546000D02*
X295655099Y-186851901D01*
X297815000Y-185546000D02*
X296961000Y-185546000D01*
X260569000Y-185546000D02*
X259715000Y-185546000D01*
X277309099Y-186851901D02*
X261874901Y-186851901D01*
X278615000Y-185546000D02*
X277309099Y-186851901D01*
X261874901Y-186851901D02*
X260569000Y-185546000D01*
X278765000Y-185546000D02*
X278615000Y-185546000D01*
X241519000Y-185546000D02*
X240665000Y-185546000D01*
X242824901Y-186851901D02*
X241519000Y-185546000D01*
X255998061Y-186851901D02*
X242824901Y-186851901D01*
X257303962Y-185546000D02*
X255998061Y-186851901D01*
X259715000Y-185546000D02*
X257303962Y-185546000D01*
X222469000Y-185546000D02*
X221615000Y-185546000D01*
X223774901Y-186851901D02*
X222469000Y-185546000D01*
X238134038Y-185546000D02*
X236828137Y-186851901D01*
X236828137Y-186851901D02*
X223774901Y-186851901D01*
X240665000Y-185546000D02*
X238134038Y-185546000D01*
X204724901Y-186851901D02*
X203419000Y-185546000D01*
X203419000Y-185546000D02*
X202565000Y-185546000D01*
X219455099Y-186851901D02*
X204724901Y-186851901D01*
X220761000Y-185546000D02*
X219455099Y-186851901D01*
X221615000Y-185546000D02*
X220761000Y-185546000D01*
X185674901Y-186851901D02*
X184369000Y-185546000D01*
X200405099Y-186851901D02*
X185674901Y-186851901D01*
X201711000Y-185546000D02*
X200405099Y-186851901D01*
X184369000Y-185546000D02*
X183515000Y-185546000D01*
X202565000Y-185546000D02*
X201711000Y-185546000D01*
X487461000Y-166496000D02*
X469265000Y-184692000D01*
X469265000Y-184842000D02*
X469265000Y-185546000D01*
X469265000Y-184692000D02*
X469265000Y-184842000D01*
X488315000Y-166496000D02*
X487461000Y-166496000D01*
X135318500Y-212856750D02*
X135318500Y-211852750D01*
X135318500Y-216589570D02*
X135318500Y-212856750D01*
X138286470Y-219557540D02*
X135318500Y-216589570D01*
X142764530Y-219557540D02*
X138286470Y-219557540D01*
X159331010Y-202991060D02*
X159065056Y-203257013D01*
X183515000Y-185546000D02*
X183365000Y-185546000D01*
X159331010Y-195125990D02*
X159331010Y-202991060D01*
X183365000Y-185546000D02*
X179046000Y-189865000D01*
X164592000Y-189865000D02*
X159331010Y-195125990D01*
X159065056Y-203257013D02*
X142764530Y-219557540D01*
X179046000Y-189865000D02*
X164592000Y-189865000D01*
X111445290Y-201358290D02*
X112141000Y-202054000D01*
X111445290Y-188779460D02*
X111445290Y-201358290D01*
X113049250Y-187175500D02*
X111445290Y-188779460D01*
X113049250Y-186300500D02*
X113049250Y-187175500D01*
X136918500Y-212856750D02*
X136918500Y-211852750D01*
X169672000Y-155067000D02*
X164719000Y-155067000D01*
X136918500Y-216905436D02*
X136918500Y-212856750D01*
X142388416Y-218649520D02*
X138662584Y-218649520D01*
X138662584Y-218649520D02*
X136918500Y-216905436D01*
X155509056Y-205528879D02*
X142388416Y-218649520D01*
X155775010Y-164018056D02*
X155775010Y-205262926D01*
X164719000Y-155074066D02*
X155775010Y-164018056D01*
X164719000Y-155067000D02*
X164719000Y-155074066D01*
X171450000Y-156845000D02*
X169672000Y-155067000D01*
X155775010Y-205262926D02*
X155509056Y-205528879D01*
X171450000Y-162941000D02*
X171450000Y-156845000D01*
X137439990Y-216784859D02*
X138850641Y-218195510D01*
X137439990Y-214953332D02*
X137439990Y-216784859D01*
X138850641Y-218195510D02*
X142200359Y-218195510D01*
X182171990Y-154612990D02*
X190500000Y-162941000D01*
X164530943Y-154612990D02*
X182171990Y-154612990D01*
X137718500Y-214674822D02*
X137439990Y-214953332D01*
X142200359Y-218195510D02*
X155321000Y-205074869D01*
X137718500Y-211852750D02*
X137718500Y-214674822D01*
X156079467Y-163071533D02*
X155321000Y-163830000D01*
X156079467Y-163064467D02*
X156079467Y-163071533D01*
X155321000Y-205074869D02*
X155321000Y-163830000D01*
X156079467Y-163064467D02*
X164530943Y-154612990D01*
X113849250Y-189886250D02*
X113157000Y-190578500D01*
X113849250Y-186300500D02*
X113849250Y-189886250D01*
X114649250Y-189911750D02*
X115316000Y-190578500D01*
X114649250Y-186300500D02*
X114649250Y-189911750D01*
X466853962Y-204596000D02*
X465548061Y-205901901D01*
X451069000Y-204596000D02*
X450215000Y-204596000D01*
X452374901Y-205901901D02*
X451069000Y-204596000D01*
X465548061Y-205901901D02*
X452374901Y-205901901D01*
X469265000Y-204596000D02*
X466853962Y-204596000D01*
X423129000Y-213486000D02*
X422275000Y-213486000D01*
X441686009Y-212270991D02*
X424344009Y-212270991D01*
X424344009Y-212270991D02*
X423129000Y-213486000D01*
X449361000Y-204596000D02*
X441686009Y-212270991D01*
X450215000Y-204596000D02*
X449361000Y-204596000D01*
X393919000Y-204596000D02*
X393065000Y-204596000D01*
X404749901Y-215426901D02*
X393919000Y-204596000D01*
X420184099Y-215426901D02*
X404749901Y-215426901D01*
X422125000Y-213486000D02*
X420184099Y-215426901D01*
X422275000Y-213486000D02*
X422125000Y-213486000D01*
X376174901Y-205901901D02*
X374869000Y-204596000D01*
X391609099Y-205901901D02*
X376174901Y-205901901D01*
X392915000Y-204596000D02*
X391609099Y-205901901D01*
X374869000Y-204596000D02*
X374015000Y-204596000D01*
X393065000Y-204596000D02*
X392915000Y-204596000D01*
X355819000Y-204596000D02*
X354965000Y-204596000D01*
X357217000Y-205994000D02*
X355819000Y-204596000D01*
X372467000Y-205994000D02*
X357217000Y-205994000D01*
X373865000Y-204596000D02*
X372467000Y-205994000D01*
X374015000Y-204596000D02*
X373865000Y-204596000D01*
X338074901Y-205901901D02*
X336769000Y-204596000D01*
X352805099Y-205901901D02*
X338074901Y-205901901D01*
X336769000Y-204596000D02*
X335915000Y-204596000D01*
X354111000Y-204596000D02*
X352805099Y-205901901D01*
X354965000Y-204596000D02*
X354111000Y-204596000D01*
X319024901Y-205901901D02*
X317719000Y-204596000D01*
X333755099Y-205901901D02*
X319024901Y-205901901D01*
X317719000Y-204596000D02*
X316865000Y-204596000D01*
X335061000Y-204596000D02*
X333755099Y-205901901D01*
X335915000Y-204596000D02*
X335061000Y-204596000D01*
X298796000Y-204596000D02*
X297942000Y-204596000D01*
X300101901Y-205901901D02*
X298796000Y-204596000D01*
X316011000Y-204596000D02*
X314705099Y-205901901D01*
X314705099Y-205901901D02*
X300101901Y-205901901D01*
X316865000Y-204596000D02*
X316011000Y-204596000D01*
X279619000Y-204596000D02*
X278765000Y-204596000D01*
X280924901Y-205901901D02*
X279619000Y-204596000D01*
X296486099Y-205901901D02*
X280924901Y-205901901D01*
X297792000Y-204596000D02*
X296486099Y-205901901D01*
X297942000Y-204596000D02*
X297792000Y-204596000D01*
X260569000Y-204596000D02*
X259715000Y-204596000D01*
X261874901Y-205901901D02*
X260569000Y-204596000D01*
X276353962Y-204596000D02*
X275048061Y-205901901D01*
X275048061Y-205901901D02*
X261874901Y-205901901D01*
X278765000Y-204596000D02*
X276353962Y-204596000D01*
X241519000Y-204596000D02*
X240665000Y-204596000D01*
X242824901Y-205901901D02*
X241519000Y-204596000D01*
X255998061Y-205901901D02*
X242824901Y-205901901D01*
X257303962Y-204596000D02*
X255998061Y-205901901D01*
X259715000Y-204596000D02*
X257303962Y-204596000D01*
X223774901Y-205901901D02*
X222469000Y-204596000D01*
X239209099Y-205901901D02*
X223774901Y-205901901D01*
X222469000Y-204596000D02*
X221615000Y-204596000D01*
X240515000Y-204596000D02*
X239209099Y-205901901D01*
X240665000Y-204596000D02*
X240515000Y-204596000D01*
X203419000Y-204596000D02*
X202565000Y-204596000D01*
X204724901Y-205901901D02*
X203419000Y-204596000D01*
X217898061Y-205901901D02*
X204724901Y-205901901D01*
X219203962Y-204596000D02*
X217898061Y-205901901D01*
X221615000Y-204596000D02*
X219203962Y-204596000D01*
X185674901Y-205901901D02*
X184369000Y-204596000D01*
X198848061Y-205901901D02*
X185674901Y-205901901D01*
X200153962Y-204596000D02*
X198848061Y-205901901D01*
X184369000Y-204596000D02*
X183515000Y-204596000D01*
X202565000Y-204596000D02*
X200153962Y-204596000D01*
X488315000Y-185546000D02*
X469265000Y-204596000D01*
X183365000Y-204596000D02*
X179046000Y-208915000D01*
X183515000Y-204596000D02*
X183365000Y-204596000D01*
X179046000Y-208915000D02*
X154049136Y-208915000D01*
X142952587Y-220011550D02*
X138098413Y-220011550D01*
X138098413Y-220011550D02*
X137832460Y-219745596D01*
X154049136Y-208915000D02*
X142952587Y-220011550D01*
X134518500Y-216431636D02*
X134518500Y-211852750D01*
X137832460Y-219745596D02*
X134518500Y-216431636D01*
X478790000Y-224350000D02*
X469969000Y-233171000D01*
X478790000Y-223646000D02*
X478790000Y-224350000D01*
X422494000Y-233171000D02*
X421640000Y-233171000D01*
X423799901Y-234476901D02*
X422494000Y-233171000D01*
X438530099Y-234476901D02*
X423799901Y-234476901D01*
X439836000Y-233171000D02*
X438530099Y-234476901D01*
X440690000Y-233171000D02*
X439836000Y-233171000D01*
X419480099Y-234476901D02*
X404749901Y-234476901D01*
X420786000Y-233171000D02*
X419480099Y-234476901D01*
X403444000Y-233171000D02*
X402590000Y-233171000D01*
X404749901Y-234476901D02*
X403444000Y-233171000D01*
X421640000Y-233171000D02*
X420786000Y-233171000D01*
X374869000Y-223646000D02*
X374015000Y-223646000D01*
X385699901Y-234476901D02*
X374869000Y-223646000D01*
X401134099Y-234476901D02*
X385699901Y-234476901D01*
X402440000Y-233171000D02*
X401134099Y-234476901D01*
X402590000Y-233171000D02*
X402440000Y-233171000D01*
X355819000Y-223646000D02*
X354965000Y-223646000D01*
X372559099Y-224951901D02*
X357124901Y-224951901D01*
X357124901Y-224951901D02*
X355819000Y-223646000D01*
X373865000Y-223646000D02*
X372559099Y-224951901D01*
X374015000Y-223646000D02*
X373865000Y-223646000D01*
X338074901Y-224951901D02*
X336769000Y-223646000D01*
X352805099Y-224951901D02*
X338074901Y-224951901D01*
X354111000Y-223646000D02*
X352805099Y-224951901D01*
X336769000Y-223646000D02*
X335915000Y-223646000D01*
X354965000Y-223646000D02*
X354111000Y-223646000D01*
X317719000Y-223646000D02*
X316865000Y-223646000D01*
X332198061Y-224951901D02*
X319024901Y-224951901D01*
X333503962Y-223646000D02*
X332198061Y-224951901D01*
X319024901Y-224951901D02*
X317719000Y-223646000D01*
X335915000Y-223646000D02*
X333503962Y-223646000D01*
X299847901Y-224951901D02*
X298542000Y-223646000D01*
X298542000Y-223646000D02*
X297688000Y-223646000D01*
X313148061Y-224951901D02*
X299847901Y-224951901D01*
X314453962Y-223646000D02*
X313148061Y-224951901D01*
X316865000Y-223646000D02*
X314453962Y-223646000D01*
X280924901Y-224951901D02*
X279619000Y-223646000D01*
X279619000Y-223646000D02*
X278765000Y-223646000D01*
X295528099Y-224951901D02*
X280924901Y-224951901D01*
X296834000Y-223646000D02*
X295528099Y-224951901D01*
X297688000Y-223646000D02*
X296834000Y-223646000D01*
X261874901Y-224951901D02*
X260569000Y-223646000D01*
X275048061Y-224951901D02*
X261874901Y-224951901D01*
X260569000Y-223646000D02*
X259715000Y-223646000D01*
X276353962Y-223646000D02*
X275048061Y-224951901D01*
X278765000Y-223646000D02*
X276353962Y-223646000D01*
X241519000Y-223646000D02*
X240665000Y-223646000D01*
X242824901Y-224951901D02*
X241519000Y-223646000D01*
X255998061Y-224951901D02*
X242824901Y-224951901D01*
X257303962Y-223646000D02*
X255998061Y-224951901D01*
X259715000Y-223646000D02*
X257303962Y-223646000D01*
X222342000Y-223646000D02*
X221488000Y-223646000D01*
X223647901Y-224951901D02*
X222342000Y-223646000D01*
X240515000Y-223646000D02*
X239209099Y-224951901D01*
X239209099Y-224951901D02*
X223647901Y-224951901D01*
X240665000Y-223646000D02*
X240515000Y-223646000D01*
X203419000Y-223646000D02*
X202565000Y-223646000D01*
X204724901Y-224951901D02*
X203419000Y-223646000D01*
X217898061Y-224951901D02*
X204724901Y-224951901D01*
X219203962Y-223646000D02*
X217898061Y-224951901D01*
X221488000Y-223646000D02*
X219203962Y-223646000D01*
X184369000Y-223646000D02*
X183515000Y-223646000D01*
X185674901Y-224951901D02*
X184369000Y-223646000D01*
X198848061Y-224951901D02*
X185674901Y-224951901D01*
X200153962Y-223646000D02*
X198848061Y-224951901D01*
X202565000Y-223646000D02*
X200153962Y-223646000D01*
X488315000Y-214271000D02*
X478940000Y-223646000D01*
X478940000Y-223646000D02*
X478790000Y-223646000D01*
X488315000Y-204596000D02*
X488315000Y-214271000D01*
X142396698Y-224951901D02*
X133718500Y-216273703D01*
X181355099Y-224951901D02*
X142396698Y-224951901D01*
X133718500Y-212856750D02*
X133718500Y-211852750D01*
X182661000Y-223646000D02*
X181355099Y-224951901D01*
X133718500Y-216273703D02*
X133718500Y-212856750D01*
X183515000Y-223646000D02*
X182661000Y-223646000D01*
X469969000Y-233171000D02*
X461360250Y-233171000D01*
X461360250Y-233171000D02*
X460375000Y-234156250D01*
X460375000Y-234156250D02*
X457200000Y-234156250D01*
X456214750Y-233171000D02*
X441516500Y-233171000D01*
X457200000Y-234156250D02*
X456214750Y-233171000D01*
X441516500Y-233171000D02*
X440690000Y-233171000D01*
X441544000Y-233171000D02*
X441516500Y-233171000D01*
X139318500Y-199263500D02*
X139318500Y-200452750D01*
X151234910Y-197253090D02*
X149733000Y-198755000D01*
X151234910Y-162130421D02*
X151234910Y-197253090D01*
X139827000Y-198755000D02*
X139318500Y-199263500D01*
X162572479Y-150792854D02*
X151234910Y-162130421D01*
X162838432Y-150526900D02*
X162572479Y-150792854D01*
X149733000Y-198755000D02*
X139827000Y-198755000D01*
X349535900Y-150526900D02*
X162838432Y-150526900D01*
X361950000Y-162941000D02*
X349535900Y-150526900D01*
X162650375Y-150072890D02*
X368131890Y-150072890D01*
X151046854Y-161676411D02*
X162650375Y-150072890D01*
X150780900Y-161942364D02*
X151046854Y-161676411D01*
X150780900Y-197065034D02*
X150780900Y-161942364D01*
X139638943Y-198300990D02*
X149544944Y-198300990D01*
X149544944Y-198300990D02*
X150780900Y-197065034D01*
X138518500Y-199421433D02*
X139638943Y-198300990D01*
X368131890Y-150072890D02*
X381000000Y-162941000D01*
X138518500Y-200452750D02*
X138518500Y-199421433D01*
X149356888Y-197846980D02*
X139320270Y-197846980D01*
X150326890Y-196876978D02*
X149356888Y-197846980D01*
X139320270Y-197846980D02*
X137718500Y-199448750D01*
X150326890Y-161754307D02*
X150326890Y-196876978D01*
X137718500Y-199448750D02*
X137718500Y-200452750D01*
X162462318Y-149618880D02*
X150326890Y-161754307D01*
X386727880Y-149618880D02*
X162462318Y-149618880D01*
X400050000Y-162941000D02*
X386727880Y-149618880D01*
X162274261Y-149164870D02*
X164912870Y-149164870D01*
X150138834Y-161300297D02*
X162274261Y-149164870D01*
X149168832Y-197392970D02*
X149872880Y-196688922D01*
X136918500Y-199606686D02*
X139132213Y-197392970D01*
X149872880Y-196688922D02*
X149872880Y-161566250D01*
X139132213Y-197392970D02*
X149168832Y-197392970D01*
X136918500Y-200452750D02*
X136918500Y-199606686D01*
X164912870Y-149164870D02*
X164719000Y-149164870D01*
X149872880Y-161566250D02*
X150138834Y-161300297D01*
X313284205Y-149164870D02*
X164912870Y-149164870D01*
X386915937Y-149164870D02*
X313284205Y-149164870D01*
X393453066Y-155702000D02*
X386915937Y-149164870D01*
X402709933Y-155702000D02*
X393453066Y-155702000D01*
X410090066Y-155702000D02*
X407381807Y-158410260D01*
X407381807Y-158410260D02*
X405418193Y-158410260D01*
X405418193Y-158410260D02*
X402709933Y-155702000D01*
X430911000Y-155702000D02*
X410090066Y-155702000D01*
X438150000Y-162941000D02*
X430911000Y-155702000D01*
X136118500Y-199448750D02*
X136118500Y-200452750D01*
X138628290Y-196938960D02*
X136118500Y-199448750D01*
X449506990Y-155247990D02*
X409902010Y-155247990D01*
X149418870Y-196500866D02*
X148980776Y-196938960D01*
X387103994Y-148710860D02*
X162086204Y-148710860D01*
X393641122Y-155247990D02*
X387103994Y-148710860D01*
X402897990Y-155247990D02*
X393641122Y-155247990D01*
X149418870Y-161378193D02*
X149418870Y-196500866D01*
X409902010Y-155247990D02*
X407193750Y-157956250D01*
X405606250Y-157956250D02*
X402897990Y-155247990D01*
X407193750Y-157956250D02*
X405606250Y-157956250D01*
X148980776Y-196938960D02*
X138628290Y-196938960D01*
X162086204Y-148710860D02*
X149418870Y-161378193D01*
X457200000Y-162941000D02*
X449506990Y-155247990D01*
X387223000Y-143891000D02*
X382857150Y-148256850D01*
X390631000Y-143891000D02*
X387223000Y-143891000D01*
X382857150Y-148256850D02*
X313660319Y-148256850D01*
X161898147Y-148256850D02*
X148964860Y-161190136D01*
X313660319Y-148256850D02*
X164925150Y-148256850D01*
X164925150Y-148256850D02*
X161898147Y-148256850D01*
X164925150Y-148256850D02*
X164719000Y-148256850D01*
X148964860Y-161190136D02*
X148964860Y-191395140D01*
X148726510Y-191633490D02*
X120913510Y-191633490D01*
X148964860Y-191395140D02*
X148726510Y-191633490D01*
X120913510Y-191633490D02*
X118745000Y-193802000D01*
X118745000Y-193802000D02*
X118745000Y-198501000D01*
X118745000Y-198501000D02*
X120904000Y-200660000D01*
X120904000Y-200660000D02*
X126873000Y-200660000D01*
X128365750Y-202152750D02*
X129618500Y-202152750D01*
X126873000Y-200660000D02*
X128365750Y-202152750D01*
X200767980Y-154158980D02*
X209550000Y-162941000D01*
X164342887Y-154158980D02*
X200767980Y-154158980D01*
X154866990Y-204886813D02*
X154866990Y-163634877D01*
X154866990Y-163634877D02*
X164342887Y-154158980D01*
X150401053Y-209352750D02*
X154866990Y-204886813D01*
X141018500Y-209352750D02*
X150401053Y-209352750D01*
X142022500Y-208552750D02*
X141018500Y-208552750D01*
X150558987Y-208552750D02*
X142022500Y-208552750D01*
X164154830Y-153704970D02*
X154412980Y-163446820D01*
X154412980Y-163446820D02*
X154412980Y-204698757D01*
X219363970Y-153704970D02*
X164154830Y-153704970D01*
X154412980Y-204698757D02*
X150558987Y-208552750D01*
X228600000Y-162941000D02*
X219363970Y-153704970D01*
X237959960Y-153250960D02*
X247650000Y-162941000D01*
X163966774Y-153250960D02*
X237959960Y-153250960D01*
X154224924Y-162992810D02*
X163966774Y-153250960D01*
X153958970Y-163258763D02*
X154224924Y-162992810D01*
X141018500Y-207752750D02*
X150716921Y-207752750D01*
X150716921Y-207752750D02*
X153958970Y-204510701D01*
X153958970Y-204510701D02*
X153958970Y-163258763D01*
X266700000Y-162941000D02*
X256555950Y-152796950D01*
X256555950Y-152796950D02*
X170612285Y-152796950D01*
X170612285Y-152796950D02*
X164734950Y-152796950D01*
X153504962Y-163070705D02*
X154036868Y-162538800D01*
X153504960Y-163446819D02*
X153504962Y-163070705D01*
X153504960Y-163070706D02*
X153504960Y-163446819D01*
X163778717Y-152796950D02*
X153504960Y-163070706D01*
X164734950Y-152796950D02*
X163778717Y-152796950D01*
X154036868Y-162538800D02*
X153504960Y-163070706D01*
X150874855Y-206952750D02*
X141018500Y-206952750D01*
X153504960Y-204322645D02*
X150874855Y-206952750D01*
X153504960Y-163070706D02*
X153504960Y-204322645D01*
X153050950Y-204073050D02*
X150971250Y-206152750D01*
X153050950Y-162882649D02*
X153050950Y-204073050D01*
X163590660Y-152342940D02*
X153050950Y-162882649D01*
X275151940Y-152342940D02*
X163590660Y-152342940D01*
X150971250Y-206152750D02*
X141018500Y-206152750D01*
X285750000Y-162941000D02*
X275151940Y-152342940D01*
X151129184Y-205352750D02*
X141018500Y-205352750D01*
X152596940Y-203884994D02*
X151129184Y-205352750D01*
X152596940Y-162694592D02*
X152596940Y-203884994D01*
X163402603Y-151888930D02*
X152596940Y-162694592D01*
X293747930Y-151888930D02*
X163402603Y-151888930D01*
X304800000Y-162941000D02*
X293747930Y-151888930D01*
X151287118Y-204552750D02*
X141018500Y-204552750D01*
X152142930Y-203696938D02*
X151287118Y-204552750D01*
X163214546Y-151434920D02*
X152142930Y-162506535D01*
X312343920Y-151434920D02*
X163214546Y-151434920D01*
X152142930Y-162506535D02*
X152142930Y-203696938D01*
X323850000Y-162941000D02*
X312343920Y-151434920D01*
X330939910Y-150980910D02*
X312531977Y-150980910D01*
X342900000Y-162941000D02*
X330939910Y-150980910D01*
X312531977Y-150980910D02*
X164719000Y-150980910D01*
X151688920Y-203508882D02*
X151445052Y-203752750D01*
X163026489Y-150980910D02*
X151688920Y-162318478D01*
X316808872Y-150980910D02*
X163026489Y-150980910D01*
X151688920Y-162318478D02*
X151688920Y-203508882D01*
X151445052Y-203752750D02*
X141018500Y-203752750D01*
X178380000Y-160981000D02*
X177760000Y-160981000D01*
X180595000Y-163196000D02*
X178380000Y-160981000D01*
X183515000Y-163196000D02*
X180595000Y-163196000D01*
X199645000Y-163196000D02*
X196850000Y-160401000D01*
X202565000Y-163196000D02*
X199645000Y-163196000D01*
X218695000Y-163196000D02*
X215900000Y-160401000D01*
X221615000Y-163196000D02*
X218695000Y-163196000D01*
X237745000Y-163196000D02*
X235530000Y-160981000D01*
X235530000Y-160981000D02*
X234910000Y-160981000D01*
X240665000Y-163196000D02*
X237745000Y-163196000D01*
X254580000Y-160981000D02*
X253960000Y-160981000D01*
X256795000Y-163196000D02*
X254580000Y-160981000D01*
X259715000Y-163196000D02*
X256795000Y-163196000D01*
X273630000Y-160981000D02*
X273010000Y-160981000D01*
X275845000Y-163196000D02*
X273630000Y-160981000D01*
X278765000Y-163196000D02*
X275845000Y-163196000D01*
X294895000Y-163196000D02*
X292100000Y-160401000D01*
X297815000Y-163196000D02*
X294895000Y-163196000D01*
X313945000Y-163196000D02*
X311150000Y-160401000D01*
X316865000Y-163196000D02*
X313945000Y-163196000D01*
X332375000Y-163196000D02*
X330160000Y-160981000D01*
X335915000Y-163196000D02*
X332375000Y-163196000D01*
X350374999Y-161525999D02*
X349250000Y-160401000D01*
X352045000Y-163196000D02*
X350374999Y-161525999D01*
X354965000Y-163196000D02*
X352045000Y-163196000D01*
X370475000Y-163196000D02*
X374015000Y-163196000D01*
X368260000Y-160981000D02*
X370475000Y-163196000D01*
X387930000Y-160981000D02*
X387310000Y-160981000D01*
X390145000Y-163196000D02*
X387930000Y-160981000D01*
X393065000Y-163196000D02*
X390145000Y-163196000D01*
X406980000Y-160981000D02*
X406360000Y-160981000D01*
X409195000Y-163196000D02*
X406980000Y-160981000D01*
X412115000Y-163196000D02*
X409195000Y-163196000D01*
X445080000Y-160981000D02*
X444460000Y-160981000D01*
X447295000Y-163196000D02*
X445080000Y-160981000D01*
X450215000Y-163196000D02*
X447295000Y-163196000D01*
X464130000Y-160981000D02*
X463510000Y-160981000D01*
X466345000Y-163196000D02*
X464130000Y-160981000D01*
X469265000Y-163196000D02*
X466345000Y-163196000D01*
X397455000Y-141804000D02*
X396835000Y-141804000D01*
X399776000Y-144146000D02*
X396981000Y-141351000D01*
X402717000Y-144146000D02*
X399776000Y-144146000D01*
X179975000Y-182246000D02*
X177760000Y-180031000D01*
X183515000Y-182246000D02*
X179975000Y-182246000D01*
X199025000Y-182246000D02*
X196810000Y-180031000D01*
X202565000Y-182246000D02*
X199025000Y-182246000D01*
X216480000Y-180031000D02*
X215860000Y-180031000D01*
X218695000Y-182246000D02*
X216480000Y-180031000D01*
X221615000Y-182246000D02*
X218695000Y-182246000D01*
X236074999Y-180575999D02*
X234950000Y-179451000D01*
X237745000Y-182246000D02*
X236074999Y-180575999D01*
X240665000Y-182246000D02*
X237745000Y-182246000D01*
X256795000Y-182246000D02*
X254000000Y-179451000D01*
X259715000Y-182246000D02*
X256795000Y-182246000D01*
X275845000Y-182246000D02*
X273630000Y-180031000D01*
X273630000Y-180031000D02*
X273010000Y-180031000D01*
X278765000Y-182246000D02*
X275845000Y-182246000D01*
X292680000Y-180031000D02*
X292060000Y-180031000D01*
X294895000Y-182246000D02*
X292680000Y-180031000D01*
X297815000Y-182246000D02*
X294895000Y-182246000D01*
X313325000Y-182246000D02*
X311110000Y-180031000D01*
X316865000Y-182246000D02*
X313325000Y-182246000D01*
X332375000Y-182246000D02*
X330160000Y-180031000D01*
X335915000Y-182246000D02*
X332375000Y-182246000D01*
X352045000Y-182246000D02*
X349830000Y-180031000D01*
X349830000Y-180031000D02*
X349210000Y-180031000D01*
X354965000Y-182246000D02*
X352045000Y-182246000D01*
X368880000Y-180031000D02*
X368260000Y-180031000D01*
X371095000Y-182246000D02*
X368880000Y-180031000D01*
X374015000Y-182246000D02*
X371095000Y-182246000D01*
X390145000Y-182246000D02*
X387350000Y-179451000D01*
X393065000Y-182246000D02*
X390145000Y-182246000D01*
X406980000Y-180031000D02*
X406360000Y-180031000D01*
X409195000Y-182246000D02*
X406980000Y-180031000D01*
X412115000Y-182246000D02*
X409195000Y-182246000D01*
X446675000Y-182246000D02*
X444460000Y-180031000D01*
X450215000Y-182246000D02*
X446675000Y-182246000D01*
X464674999Y-180575999D02*
X463550000Y-179451000D01*
X466345000Y-182246000D02*
X464674999Y-180575999D01*
X469265000Y-182246000D02*
X466345000Y-182246000D01*
X483180000Y-160981000D02*
X482560000Y-160981000D01*
X484775000Y-163196000D02*
X482560000Y-160981000D01*
X488315000Y-163196000D02*
X484775000Y-163196000D01*
X178380000Y-199081000D02*
X177760000Y-199081000D01*
X180595000Y-201296000D02*
X178380000Y-199081000D01*
X183515000Y-201296000D02*
X180595000Y-201296000D01*
X199025000Y-201296000D02*
X196810000Y-199081000D01*
X202565000Y-201296000D02*
X199025000Y-201296000D01*
X216480000Y-199081000D02*
X215860000Y-199081000D01*
X218695000Y-201296000D02*
X216480000Y-199081000D01*
X221615000Y-201296000D02*
X218695000Y-201296000D01*
X235530000Y-199081000D02*
X234910000Y-199081000D01*
X237745000Y-201296000D02*
X235530000Y-199081000D01*
X240665000Y-201296000D02*
X237745000Y-201296000D01*
X256175000Y-201296000D02*
X253960000Y-199081000D01*
X259715000Y-201296000D02*
X256175000Y-201296000D01*
X275225000Y-201296000D02*
X273010000Y-199081000D01*
X278765000Y-201296000D02*
X275225000Y-201296000D01*
X292680000Y-199081000D02*
X292060000Y-199081000D01*
X294895000Y-201296000D02*
X292680000Y-199081000D01*
X297942000Y-201296000D02*
X294895000Y-201296000D01*
X313945000Y-201296000D02*
X311150000Y-198501000D01*
X316865000Y-201296000D02*
X313945000Y-201296000D01*
X332375000Y-201296000D02*
X330160000Y-199081000D01*
X335915000Y-201296000D02*
X332375000Y-201296000D01*
X351425000Y-201296000D02*
X349210000Y-199081000D01*
X354965000Y-201296000D02*
X351425000Y-201296000D01*
X370475000Y-201296000D02*
X368260000Y-199081000D01*
X374015000Y-201296000D02*
X370475000Y-201296000D01*
X387930000Y-199081000D02*
X387310000Y-199081000D01*
X390145000Y-201296000D02*
X387930000Y-199081000D01*
X393065000Y-201296000D02*
X390145000Y-201296000D01*
X417465000Y-210186000D02*
X415885000Y-208606000D01*
X422275000Y-210186000D02*
X417465000Y-210186000D01*
X445080000Y-199081000D02*
X444460000Y-199081000D01*
X447295000Y-201296000D02*
X445080000Y-199081000D01*
X450215000Y-201296000D02*
X447295000Y-201296000D01*
X465725000Y-201296000D02*
X463510000Y-199081000D01*
X469265000Y-201296000D02*
X465725000Y-201296000D01*
X483180000Y-180031000D02*
X482560000Y-180031000D01*
X485395000Y-182246000D02*
X483180000Y-180031000D01*
X488315000Y-182246000D02*
X485395000Y-182246000D01*
X178380000Y-218131000D02*
X177760000Y-218131000D01*
X180595000Y-220346000D02*
X178380000Y-218131000D01*
X183515000Y-220346000D02*
X180595000Y-220346000D01*
X199025000Y-220346000D02*
X196810000Y-218131000D01*
X202565000Y-220346000D02*
X199025000Y-220346000D01*
X218075000Y-220346000D02*
X215860000Y-218131000D01*
X221488000Y-220346000D02*
X218075000Y-220346000D01*
X237125000Y-220346000D02*
X234910000Y-218131000D01*
X240665000Y-220346000D02*
X237125000Y-220346000D01*
X256175000Y-220346000D02*
X253960000Y-218131000D01*
X259715000Y-220346000D02*
X256175000Y-220346000D01*
X275225000Y-220346000D02*
X273010000Y-218131000D01*
X278765000Y-220346000D02*
X275225000Y-220346000D01*
X294895000Y-220346000D02*
X293224999Y-218675999D01*
X293224999Y-218675999D02*
X292100000Y-217551000D01*
X297688000Y-220346000D02*
X294895000Y-220346000D01*
X313325000Y-220346000D02*
X311110000Y-218131000D01*
X316865000Y-220346000D02*
X313325000Y-220346000D01*
X332375000Y-220346000D02*
X330160000Y-218131000D01*
X335915000Y-220346000D02*
X332375000Y-220346000D01*
X351425000Y-220346000D02*
X349210000Y-218131000D01*
X354965000Y-220346000D02*
X351425000Y-220346000D01*
X368880000Y-218131000D02*
X368260000Y-218131000D01*
X371095000Y-220346000D02*
X368880000Y-218131000D01*
X374015000Y-220346000D02*
X371095000Y-220346000D01*
X399050000Y-229871000D02*
X396835000Y-227656000D01*
X402590000Y-229871000D02*
X399050000Y-229871000D01*
X418100000Y-229871000D02*
X415885000Y-227656000D01*
X421640000Y-229871000D02*
X418100000Y-229871000D01*
X437150000Y-229871000D02*
X434935000Y-227656000D01*
X440690000Y-229871000D02*
X437150000Y-229871000D01*
X475123000Y-220346000D02*
X473035000Y-218258000D01*
X478790000Y-220346000D02*
X475123000Y-220346000D01*
X485395000Y-201296000D02*
X482600000Y-198501000D01*
X488315000Y-201296000D02*
X485395000Y-201296000D01*
X127745250Y-206152750D02*
X129618500Y-206152750D01*
X126492000Y-204899500D02*
X127745250Y-206152750D01*
X135318500Y-197876000D02*
X135318500Y-199448750D01*
X135318500Y-199448750D02*
X135318500Y-200452750D01*
X136513750Y-196680750D02*
X135318500Y-197876000D01*
X136513750Y-195826750D02*
X136513750Y-196680750D01*
X136601250Y-195914250D02*
X136513750Y-195826750D01*
X139319000Y-195914250D02*
X136601250Y-195914250D01*
X133359750Y-194126750D02*
X132969000Y-194517500D01*
X134313750Y-194126750D02*
X133359750Y-194126750D01*
X134518500Y-198877960D02*
X134518500Y-199448750D01*
X132969000Y-197328460D02*
X134518500Y-198877960D01*
X134518500Y-199448750D02*
X134518500Y-200452750D01*
X132969000Y-194517500D02*
X132969000Y-197328460D01*
X131572000Y-194007500D02*
X132539500Y-193040000D01*
X132539500Y-193040000D02*
X133127000Y-193040000D01*
X134213750Y-194126750D02*
X134313750Y-194126750D01*
X133127000Y-193040000D02*
X134213750Y-194126750D01*
X115316000Y-193548000D02*
X115316000Y-192453500D01*
X114554000Y-194310000D02*
X115316000Y-193548000D01*
X114554000Y-199136000D02*
X114554000Y-195707000D01*
X123317000Y-207899000D02*
X114554000Y-199136000D01*
X128397000Y-207899000D02*
X123317000Y-207899000D01*
X129618500Y-207752750D02*
X128543250Y-207752750D01*
X114554000Y-195707000D02*
X114554000Y-194310000D01*
X128543250Y-207752750D02*
X128397000Y-207899000D01*
X114554000Y-195865678D02*
X114554000Y-195707000D01*
X113157000Y-192453500D02*
X113157000Y-193548000D01*
X113157000Y-193548000D02*
X113665000Y-194056000D01*
X113665000Y-194056000D02*
X113919000Y-194310000D01*
X113919000Y-194945000D02*
X113919000Y-194952067D01*
X113919000Y-194945000D02*
X113919000Y-194952066D01*
X128614500Y-208552750D02*
X128595750Y-208534000D01*
X129618500Y-208552750D02*
X128614500Y-208552750D01*
X113919000Y-194310000D02*
X113919000Y-194691000D01*
X113919000Y-194691000D02*
X113919000Y-194945000D01*
X123182934Y-208407000D02*
X113919000Y-199143066D01*
X128397000Y-208407000D02*
X123182934Y-208407000D01*
X128542750Y-208552750D02*
X128397000Y-208407000D01*
X113919000Y-195707000D02*
X113919000Y-194691000D01*
X113919000Y-199143066D02*
X113919000Y-195707000D01*
X128614500Y-208552750D02*
X128542750Y-208552750D01*
X113919000Y-195872744D02*
X113919000Y-195707000D01*
X141097500Y-210231750D02*
X141018500Y-210152750D01*
X144018000Y-210231750D02*
X141097500Y-210231750D01*
X115368000Y-216971000D02*
X118817000Y-216971000D01*
X118817000Y-216971000D02*
X120015000Y-215773000D01*
X120015000Y-215773000D02*
X120015000Y-215646000D01*
X121109500Y-196898500D02*
X122936000Y-196898500D01*
X120015000Y-197993000D02*
X121109500Y-196898500D01*
X124675010Y-198637510D02*
X123492237Y-197454737D01*
X123492237Y-197454737D02*
X122936000Y-196898500D01*
X131307260Y-198637510D02*
X124675010Y-198637510D01*
X132118500Y-199448750D02*
X131307260Y-198637510D01*
X132118500Y-200452750D02*
X132118500Y-199448750D01*
G36*
X133792315Y-201653935D02*
G01*
X133889006Y-201733287D01*
X133912167Y-201745667D01*
X134004250Y-201837750D01*
X134117837Y-201828204D01*
X134119018Y-201828562D01*
X134243500Y-201840822D01*
X134793500Y-201840822D01*
X134917982Y-201828562D01*
X134918500Y-201828405D01*
X134919018Y-201828562D01*
X135043500Y-201840822D01*
X135593500Y-201840822D01*
X135717982Y-201828562D01*
X135718500Y-201828405D01*
X135719018Y-201828562D01*
X135843500Y-201840822D01*
X136393500Y-201840822D01*
X136517982Y-201828562D01*
X136518500Y-201828405D01*
X136519018Y-201828562D01*
X136643500Y-201840822D01*
X137193500Y-201840822D01*
X137317982Y-201828562D01*
X137318500Y-201828405D01*
X137319018Y-201828562D01*
X137443500Y-201840822D01*
X137993500Y-201840822D01*
X138117982Y-201828562D01*
X138118500Y-201828405D01*
X138119018Y-201828562D01*
X138243500Y-201840822D01*
X138793500Y-201840822D01*
X138917982Y-201828562D01*
X138918500Y-201828405D01*
X138919018Y-201828562D01*
X139043500Y-201840822D01*
X139593500Y-201840822D01*
X139636052Y-201836631D01*
X139633500Y-201867000D01*
X139792250Y-202025750D01*
X140366750Y-202025750D01*
X140366750Y-202039678D01*
X140268500Y-202039678D01*
X140144018Y-202051938D01*
X140024320Y-202088248D01*
X139914006Y-202147213D01*
X139817315Y-202226565D01*
X139737963Y-202323256D01*
X139725583Y-202346417D01*
X139633500Y-202438500D01*
X139643046Y-202552087D01*
X139642688Y-202553268D01*
X139630428Y-202677750D01*
X139630428Y-203227750D01*
X139642688Y-203352232D01*
X139642845Y-203352750D01*
X139642688Y-203353268D01*
X139630428Y-203477750D01*
X139630428Y-204027750D01*
X139642688Y-204152232D01*
X139642845Y-204152750D01*
X139642688Y-204153268D01*
X139630428Y-204277750D01*
X139630428Y-204827750D01*
X139642688Y-204952232D01*
X139642845Y-204952750D01*
X139642688Y-204953268D01*
X139630428Y-205077750D01*
X139630428Y-205627750D01*
X139642688Y-205752232D01*
X139642845Y-205752750D01*
X139642688Y-205753268D01*
X139630428Y-205877750D01*
X139630428Y-206427750D01*
X139642688Y-206552232D01*
X139642845Y-206552750D01*
X139642688Y-206553268D01*
X139630428Y-206677750D01*
X139630428Y-207227750D01*
X139642688Y-207352232D01*
X139642845Y-207352750D01*
X139642688Y-207353268D01*
X139630428Y-207477750D01*
X139630428Y-208027750D01*
X139642688Y-208152232D01*
X139642845Y-208152750D01*
X139642688Y-208153268D01*
X139630428Y-208277750D01*
X139630428Y-208827750D01*
X139642688Y-208952232D01*
X139642845Y-208952750D01*
X139642688Y-208953268D01*
X139630428Y-209077750D01*
X139630428Y-209627750D01*
X139642688Y-209752232D01*
X139642845Y-209752750D01*
X139642688Y-209753268D01*
X139630428Y-209877750D01*
X139630428Y-210427750D01*
X139634462Y-210468712D01*
X139593500Y-210464678D01*
X139043500Y-210464678D01*
X138919018Y-210476938D01*
X138917837Y-210477296D01*
X138804250Y-210467750D01*
X138712167Y-210559833D01*
X138689006Y-210572213D01*
X138592315Y-210651565D01*
X138518500Y-210741509D01*
X138444685Y-210651565D01*
X138347994Y-210572213D01*
X138324833Y-210559833D01*
X138232750Y-210467750D01*
X138119163Y-210477296D01*
X138117982Y-210476938D01*
X137993500Y-210464678D01*
X137443500Y-210464678D01*
X137319018Y-210476938D01*
X137318500Y-210477095D01*
X137317982Y-210476938D01*
X137193500Y-210464678D01*
X136643500Y-210464678D01*
X136519018Y-210476938D01*
X136518500Y-210477095D01*
X136517982Y-210476938D01*
X136393500Y-210464678D01*
X135843500Y-210464678D01*
X135719018Y-210476938D01*
X135718500Y-210477095D01*
X135717982Y-210476938D01*
X135593500Y-210464678D01*
X135043500Y-210464678D01*
X134919018Y-210476938D01*
X134918500Y-210477095D01*
X134917982Y-210476938D01*
X134793500Y-210464678D01*
X134243500Y-210464678D01*
X134119018Y-210476938D01*
X134118500Y-210477095D01*
X134117982Y-210476938D01*
X133993500Y-210464678D01*
X133443500Y-210464678D01*
X133319018Y-210476938D01*
X133318500Y-210477095D01*
X133317982Y-210476938D01*
X133193500Y-210464678D01*
X132643500Y-210464678D01*
X132519018Y-210476938D01*
X132517837Y-210477296D01*
X132404250Y-210467750D01*
X132312167Y-210559833D01*
X132289006Y-210572213D01*
X132192315Y-210651565D01*
X132118500Y-210741509D01*
X132044685Y-210651565D01*
X131947994Y-210572213D01*
X131924833Y-210559833D01*
X131832750Y-210467750D01*
X131719163Y-210477296D01*
X131717982Y-210476938D01*
X131593500Y-210464678D01*
X131043500Y-210464678D01*
X131002538Y-210468712D01*
X131006572Y-210427750D01*
X131006572Y-209877750D01*
X130994312Y-209753268D01*
X130994155Y-209752750D01*
X130994312Y-209752232D01*
X131006572Y-209627750D01*
X131006572Y-209077750D01*
X130994312Y-208953268D01*
X130994155Y-208952750D01*
X130994312Y-208952232D01*
X131006572Y-208827750D01*
X131006572Y-208277750D01*
X130994312Y-208153268D01*
X130994155Y-208152750D01*
X130994312Y-208152232D01*
X131006572Y-208027750D01*
X131006572Y-207477750D01*
X130994312Y-207353268D01*
X130993954Y-207352087D01*
X131003500Y-207238500D01*
X130911417Y-207146417D01*
X130899037Y-207123256D01*
X130819685Y-207026565D01*
X130729741Y-206952750D01*
X130819685Y-206878935D01*
X130899037Y-206782244D01*
X130911417Y-206759083D01*
X131003500Y-206667000D01*
X130993954Y-206553413D01*
X130994312Y-206552232D01*
X131006572Y-206427750D01*
X131006572Y-205877750D01*
X130994312Y-205753268D01*
X130994155Y-205752750D01*
X130994312Y-205752232D01*
X131006572Y-205627750D01*
X131006572Y-205077750D01*
X130994312Y-204953268D01*
X130994155Y-204952750D01*
X130994312Y-204952232D01*
X131006572Y-204827750D01*
X131006572Y-204277750D01*
X130994312Y-204153268D01*
X130994155Y-204152750D01*
X130994312Y-204152232D01*
X131006572Y-204027750D01*
X131006572Y-203477750D01*
X130994312Y-203353268D01*
X130994155Y-203352750D01*
X130994312Y-203352232D01*
X131006572Y-203227750D01*
X131006572Y-202677750D01*
X130994312Y-202553268D01*
X130994155Y-202552750D01*
X130994312Y-202552232D01*
X131006572Y-202427750D01*
X131006572Y-201877750D01*
X131002538Y-201836788D01*
X131043500Y-201840822D01*
X131593500Y-201840822D01*
X131717982Y-201828562D01*
X131718500Y-201828405D01*
X131719018Y-201828562D01*
X131843500Y-201840822D01*
X132393500Y-201840822D01*
X132517982Y-201828562D01*
X132518500Y-201828405D01*
X132519018Y-201828562D01*
X132643500Y-201840822D01*
X133193500Y-201840822D01*
X133317982Y-201828562D01*
X133319163Y-201828204D01*
X133432750Y-201837750D01*
X133524833Y-201745667D01*
X133547994Y-201733287D01*
X133644685Y-201653935D01*
X133718500Y-201563991D01*
X133792315Y-201653935D01*
X133792315Y-201653935D01*
G37*
X133792315Y-201653935D02*
X133889006Y-201733287D01*
X133912167Y-201745667D01*
X134004250Y-201837750D01*
X134117837Y-201828204D01*
X134119018Y-201828562D01*
X134243500Y-201840822D01*
X134793500Y-201840822D01*
X134917982Y-201828562D01*
X134918500Y-201828405D01*
X134919018Y-201828562D01*
X135043500Y-201840822D01*
X135593500Y-201840822D01*
X135717982Y-201828562D01*
X135718500Y-201828405D01*
X135719018Y-201828562D01*
X135843500Y-201840822D01*
X136393500Y-201840822D01*
X136517982Y-201828562D01*
X136518500Y-201828405D01*
X136519018Y-201828562D01*
X136643500Y-201840822D01*
X137193500Y-201840822D01*
X137317982Y-201828562D01*
X137318500Y-201828405D01*
X137319018Y-201828562D01*
X137443500Y-201840822D01*
X137993500Y-201840822D01*
X138117982Y-201828562D01*
X138118500Y-201828405D01*
X138119018Y-201828562D01*
X138243500Y-201840822D01*
X138793500Y-201840822D01*
X138917982Y-201828562D01*
X138918500Y-201828405D01*
X138919018Y-201828562D01*
X139043500Y-201840822D01*
X139593500Y-201840822D01*
X139636052Y-201836631D01*
X139633500Y-201867000D01*
X139792250Y-202025750D01*
X140366750Y-202025750D01*
X140366750Y-202039678D01*
X140268500Y-202039678D01*
X140144018Y-202051938D01*
X140024320Y-202088248D01*
X139914006Y-202147213D01*
X139817315Y-202226565D01*
X139737963Y-202323256D01*
X139725583Y-202346417D01*
X139633500Y-202438500D01*
X139643046Y-202552087D01*
X139642688Y-202553268D01*
X139630428Y-202677750D01*
X139630428Y-203227750D01*
X139642688Y-203352232D01*
X139642845Y-203352750D01*
X139642688Y-203353268D01*
X139630428Y-203477750D01*
X139630428Y-204027750D01*
X139642688Y-204152232D01*
X139642845Y-204152750D01*
X139642688Y-204153268D01*
X139630428Y-204277750D01*
X139630428Y-204827750D01*
X139642688Y-204952232D01*
X139642845Y-204952750D01*
X139642688Y-204953268D01*
X139630428Y-205077750D01*
X139630428Y-205627750D01*
X139642688Y-205752232D01*
X139642845Y-205752750D01*
X139642688Y-205753268D01*
X139630428Y-205877750D01*
X139630428Y-206427750D01*
X139642688Y-206552232D01*
X139642845Y-206552750D01*
X139642688Y-206553268D01*
X139630428Y-206677750D01*
X139630428Y-207227750D01*
X139642688Y-207352232D01*
X139642845Y-207352750D01*
X139642688Y-207353268D01*
X139630428Y-207477750D01*
X139630428Y-208027750D01*
X139642688Y-208152232D01*
X139642845Y-208152750D01*
X139642688Y-208153268D01*
X139630428Y-208277750D01*
X139630428Y-208827750D01*
X139642688Y-208952232D01*
X139642845Y-208952750D01*
X139642688Y-208953268D01*
X139630428Y-209077750D01*
X139630428Y-209627750D01*
X139642688Y-209752232D01*
X139642845Y-209752750D01*
X139642688Y-209753268D01*
X139630428Y-209877750D01*
X139630428Y-210427750D01*
X139634462Y-210468712D01*
X139593500Y-210464678D01*
X139043500Y-210464678D01*
X138919018Y-210476938D01*
X138917837Y-210477296D01*
X138804250Y-210467750D01*
X138712167Y-210559833D01*
X138689006Y-210572213D01*
X138592315Y-210651565D01*
X138518500Y-210741509D01*
X138444685Y-210651565D01*
X138347994Y-210572213D01*
X138324833Y-210559833D01*
X138232750Y-210467750D01*
X138119163Y-210477296D01*
X138117982Y-210476938D01*
X137993500Y-210464678D01*
X137443500Y-210464678D01*
X137319018Y-210476938D01*
X137318500Y-210477095D01*
X137317982Y-210476938D01*
X137193500Y-210464678D01*
X136643500Y-210464678D01*
X136519018Y-210476938D01*
X136518500Y-210477095D01*
X136517982Y-210476938D01*
X136393500Y-210464678D01*
X135843500Y-210464678D01*
X135719018Y-210476938D01*
X135718500Y-210477095D01*
X135717982Y-210476938D01*
X135593500Y-210464678D01*
X135043500Y-210464678D01*
X134919018Y-210476938D01*
X134918500Y-210477095D01*
X134917982Y-210476938D01*
X134793500Y-210464678D01*
X134243500Y-210464678D01*
X134119018Y-210476938D01*
X134118500Y-210477095D01*
X134117982Y-210476938D01*
X133993500Y-210464678D01*
X133443500Y-210464678D01*
X133319018Y-210476938D01*
X133318500Y-210477095D01*
X133317982Y-210476938D01*
X133193500Y-210464678D01*
X132643500Y-210464678D01*
X132519018Y-210476938D01*
X132517837Y-210477296D01*
X132404250Y-210467750D01*
X132312167Y-210559833D01*
X132289006Y-210572213D01*
X132192315Y-210651565D01*
X132118500Y-210741509D01*
X132044685Y-210651565D01*
X131947994Y-210572213D01*
X131924833Y-210559833D01*
X131832750Y-210467750D01*
X131719163Y-210477296D01*
X131717982Y-210476938D01*
X131593500Y-210464678D01*
X131043500Y-210464678D01*
X131002538Y-210468712D01*
X131006572Y-210427750D01*
X131006572Y-209877750D01*
X130994312Y-209753268D01*
X130994155Y-209752750D01*
X130994312Y-209752232D01*
X131006572Y-209627750D01*
X131006572Y-209077750D01*
X130994312Y-208953268D01*
X130994155Y-208952750D01*
X130994312Y-208952232D01*
X131006572Y-208827750D01*
X131006572Y-208277750D01*
X130994312Y-208153268D01*
X130994155Y-208152750D01*
X130994312Y-208152232D01*
X131006572Y-208027750D01*
X131006572Y-207477750D01*
X130994312Y-207353268D01*
X130993954Y-207352087D01*
X131003500Y-207238500D01*
X130911417Y-207146417D01*
X130899037Y-207123256D01*
X130819685Y-207026565D01*
X130729741Y-206952750D01*
X130819685Y-206878935D01*
X130899037Y-206782244D01*
X130911417Y-206759083D01*
X131003500Y-206667000D01*
X130993954Y-206553413D01*
X130994312Y-206552232D01*
X131006572Y-206427750D01*
X131006572Y-205877750D01*
X130994312Y-205753268D01*
X130994155Y-205752750D01*
X130994312Y-205752232D01*
X131006572Y-205627750D01*
X131006572Y-205077750D01*
X130994312Y-204953268D01*
X130994155Y-204952750D01*
X130994312Y-204952232D01*
X131006572Y-204827750D01*
X131006572Y-204277750D01*
X130994312Y-204153268D01*
X130994155Y-204152750D01*
X130994312Y-204152232D01*
X131006572Y-204027750D01*
X131006572Y-203477750D01*
X130994312Y-203353268D01*
X130994155Y-203352750D01*
X130994312Y-203352232D01*
X131006572Y-203227750D01*
X131006572Y-202677750D01*
X130994312Y-202553268D01*
X130994155Y-202552750D01*
X130994312Y-202552232D01*
X131006572Y-202427750D01*
X131006572Y-201877750D01*
X131002538Y-201836788D01*
X131043500Y-201840822D01*
X131593500Y-201840822D01*
X131717982Y-201828562D01*
X131718500Y-201828405D01*
X131719018Y-201828562D01*
X131843500Y-201840822D01*
X132393500Y-201840822D01*
X132517982Y-201828562D01*
X132518500Y-201828405D01*
X132519018Y-201828562D01*
X132643500Y-201840822D01*
X133193500Y-201840822D01*
X133317982Y-201828562D01*
X133319163Y-201828204D01*
X133432750Y-201837750D01*
X133524833Y-201745667D01*
X133547994Y-201733287D01*
X133644685Y-201653935D01*
X133718500Y-201563991D01*
X133792315Y-201653935D01*
G36*
X116835737Y-181009389D02*
G01*
X116814250Y-181227550D01*
X116814250Y-182373449D01*
X116835737Y-182591610D01*
X116920651Y-182871533D01*
X117058544Y-183129513D01*
X117244116Y-183355634D01*
X117470236Y-183541206D01*
X117728216Y-183679099D01*
X117983000Y-183756387D01*
X117983000Y-184344613D01*
X117728217Y-184421901D01*
X117470237Y-184559794D01*
X117244117Y-184745366D01*
X117089373Y-184933921D01*
X117033656Y-184826866D01*
X116955373Y-184729307D01*
X116859561Y-184648896D01*
X116749902Y-184588721D01*
X116630611Y-184551096D01*
X116531000Y-184540500D01*
X116372250Y-184699250D01*
X116372250Y-186173500D01*
X116396250Y-186173500D01*
X116396250Y-186427500D01*
X116372250Y-186427500D01*
X116372250Y-186447500D01*
X116337322Y-186447500D01*
X116337322Y-185175500D01*
X116325062Y-185051018D01*
X116288752Y-184931320D01*
X116229787Y-184821006D01*
X116150435Y-184724315D01*
X116126250Y-184704467D01*
X116126250Y-184699250D01*
X115967500Y-184540500D01*
X115867889Y-184551096D01*
X115848516Y-184557206D01*
X115823732Y-184549688D01*
X115699250Y-184537428D01*
X115199250Y-184537428D01*
X115074768Y-184549688D01*
X115049250Y-184557429D01*
X115023732Y-184549688D01*
X114899250Y-184537428D01*
X114399250Y-184537428D01*
X114274768Y-184549688D01*
X114249250Y-184557429D01*
X114223732Y-184549688D01*
X114099250Y-184537428D01*
X113599250Y-184537428D01*
X113474768Y-184549688D01*
X113449250Y-184557429D01*
X113423732Y-184549688D01*
X113299250Y-184537428D01*
X112799250Y-184537428D01*
X112674768Y-184549688D01*
X112555070Y-184585998D01*
X112444756Y-184644963D01*
X112348065Y-184724315D01*
X112268713Y-184821006D01*
X112209748Y-184931320D01*
X112209004Y-184933771D01*
X112054384Y-184745366D01*
X111828264Y-184559794D01*
X111570284Y-184421901D01*
X111290361Y-184336987D01*
X110999250Y-184308315D01*
X110708140Y-184336987D01*
X110617000Y-184364634D01*
X110617000Y-183736366D01*
X110708139Y-183764013D01*
X110999250Y-183792685D01*
X111290360Y-183764013D01*
X111570283Y-183679099D01*
X111828263Y-183541206D01*
X112054384Y-183355634D01*
X112239956Y-183129514D01*
X112377849Y-182871534D01*
X112462763Y-182591611D01*
X112484250Y-182373450D01*
X112484250Y-181227550D01*
X112462763Y-181009389D01*
X112422376Y-180876250D01*
X116876124Y-180876250D01*
X116835737Y-181009389D01*
X116835737Y-181009389D01*
G37*
X116835737Y-181009389D02*
X116814250Y-181227550D01*
X116814250Y-182373449D01*
X116835737Y-182591610D01*
X116920651Y-182871533D01*
X117058544Y-183129513D01*
X117244116Y-183355634D01*
X117470236Y-183541206D01*
X117728216Y-183679099D01*
X117983000Y-183756387D01*
X117983000Y-184344613D01*
X117728217Y-184421901D01*
X117470237Y-184559794D01*
X117244117Y-184745366D01*
X117089373Y-184933921D01*
X117033656Y-184826866D01*
X116955373Y-184729307D01*
X116859561Y-184648896D01*
X116749902Y-184588721D01*
X116630611Y-184551096D01*
X116531000Y-184540500D01*
X116372250Y-184699250D01*
X116372250Y-186173500D01*
X116396250Y-186173500D01*
X116396250Y-186427500D01*
X116372250Y-186427500D01*
X116372250Y-186447500D01*
X116337322Y-186447500D01*
X116337322Y-185175500D01*
X116325062Y-185051018D01*
X116288752Y-184931320D01*
X116229787Y-184821006D01*
X116150435Y-184724315D01*
X116126250Y-184704467D01*
X116126250Y-184699250D01*
X115967500Y-184540500D01*
X115867889Y-184551096D01*
X115848516Y-184557206D01*
X115823732Y-184549688D01*
X115699250Y-184537428D01*
X115199250Y-184537428D01*
X115074768Y-184549688D01*
X115049250Y-184557429D01*
X115023732Y-184549688D01*
X114899250Y-184537428D01*
X114399250Y-184537428D01*
X114274768Y-184549688D01*
X114249250Y-184557429D01*
X114223732Y-184549688D01*
X114099250Y-184537428D01*
X113599250Y-184537428D01*
X113474768Y-184549688D01*
X113449250Y-184557429D01*
X113423732Y-184549688D01*
X113299250Y-184537428D01*
X112799250Y-184537428D01*
X112674768Y-184549688D01*
X112555070Y-184585998D01*
X112444756Y-184644963D01*
X112348065Y-184724315D01*
X112268713Y-184821006D01*
X112209748Y-184931320D01*
X112209004Y-184933771D01*
X112054384Y-184745366D01*
X111828264Y-184559794D01*
X111570284Y-184421901D01*
X111290361Y-184336987D01*
X110999250Y-184308315D01*
X110708140Y-184336987D01*
X110617000Y-184364634D01*
X110617000Y-183736366D01*
X110708139Y-183764013D01*
X110999250Y-183792685D01*
X111290360Y-183764013D01*
X111570283Y-183679099D01*
X111828263Y-183541206D01*
X112054384Y-183355634D01*
X112239956Y-183129514D01*
X112377849Y-182871534D01*
X112462763Y-182591611D01*
X112484250Y-182373450D01*
X112484250Y-181227550D01*
X112462763Y-181009389D01*
X112422376Y-180876250D01*
X116876124Y-180876250D01*
X116835737Y-181009389D01*
M02*
