M48
; DRILL file {KiCad (5.1.4-0)} date Friday, September 11, 2020 at 02:24:58 AM
; FORMAT={-:-/ absolute / inch / decimal}
; #@! TF.CreationDate,2020-09-11T02:24:58-07:00
; #@! TF.GenerationSoftware,Kicad,Pcbnew,(5.1.4-0)
; #@! TF.FileFunction,NonPlated,1,2,NPTH
FMAT,2
INCH
T1C0.0689
T2C0.1200
T3C0.1570
%
G90
G05
T1
X11.95Y-8.015
X12.35Y-8.015
X10.45Y-6.515
X10.85Y-6.515
X13.45Y-8.765
X13.85Y-8.765
X8.2Y-6.515
X8.6Y-6.515
X13.45Y-7.265
X13.85Y-7.265
X14.95Y-8.015
X15.35Y-8.015
X15.3292Y-5.765
X17.95Y-8.015
X18.35Y-8.015
X8.6Y-8.015
X13.45Y-6.515
X13.85Y-6.515
X15.7Y-7.265
X16.1Y-7.265
X17.95Y-7.265
X18.35Y-7.265
X8.2Y-7.265
X8.6Y-7.265
X12.7Y-7.265
X13.1Y-7.265
X8.2Y-8.015
X16.075Y-9.14
X16.475Y-9.14
X17.95Y-6.515
X18.35Y-6.515
X12.35Y-8.765
X15.7292Y-5.765
X11.6Y-8.765
X14.2Y-8.765
X11.95Y-8.765
X10.45Y-8.765
X10.85Y-8.765
X12.7Y-8.765
X13.1Y-8.765
X17.2Y-8.015
X17.6Y-8.015
X14.2Y-6.515
X14.6Y-6.515
X8.2Y-8.765
X8.6Y-8.765
X11.2Y-8.765
X14.6Y-8.765
X9.7Y-6.515
X10.1Y-6.515
X16.075Y-8.39
X16.475Y-8.39
X7.85Y-8.015
X9.35Y-8.015
X9.7Y-8.765
X10.1Y-8.765
X8.95Y-8.015
X14.2Y-8.015
X7.45Y-8.015
X12.7Y-8.015
X13.1Y-8.015
X14.6Y-8.015
X13.45Y-8.015
X13.85Y-8.015
X10.45Y-8.015
X10.85Y-8.015
X6.7Y-6.515
X7.1Y-6.515
X11.2Y-6.515
X11.6Y-6.515
X11.95Y-7.265
X12.35Y-7.265
X7.45Y-6.515
X11.95Y-6.515
X12.35Y-6.515
X17.2Y-7.265
X17.6Y-7.265
X8.95Y-6.515
X9.35Y-6.515
X7.45Y-7.265
X7.85Y-7.265
X8.95Y-7.265
X9.35Y-7.265
X15.35Y-6.515
X9.7Y-8.015
X10.1Y-8.015
X14.95Y-6.515
X15.7Y-6.515
X16.1Y-6.515
X12.7Y-6.515
X13.1Y-6.515
X18.325Y-8.77
X18.725Y-8.77
X7.85Y-6.515
X6.7Y-7.265
X7.45Y-8.765
X14.95Y-7.265
X15.35Y-7.265
X18.7Y-8.015
X19.1Y-8.015
X15.325Y-9.14
X15.725Y-9.14
X18.7Y-7.265
X19.1Y-7.265
X9.7Y-7.265
X10.1Y-7.265
X11.2Y-7.265
X11.6Y-7.265
X14.2Y-7.265
X14.6Y-7.265
X17.6Y-6.515
X9.35Y-8.765
X17.2Y-6.515
X8.95Y-8.765
X10.45Y-7.265
X19.1Y-6.515
X16.825Y-9.14
X7.85Y-8.765
X10.85Y-7.265
X7.1Y-7.265
X7.1Y-8.015
X11.2Y-8.015
X11.6Y-8.015
X18.7Y-6.515
X6.7Y-8.015
X6.7Y-8.765
X7.1Y-8.765
X17.225Y-9.14
T2
X15.0592Y-5.49
X15.9992Y-5.49
X18.055Y-8.495
X18.995Y-8.495
T3
X13.65Y-8.765
X12.9Y-7.265
X15.15Y-8.015
X18.9Y-8.015
X8.4Y-6.515
X15.15Y-7.265
X10.65Y-6.515
X13.65Y-7.265
X18.15Y-7.265
X15.9Y-7.265
X8.4Y-7.265
X15.0592Y-6.09
X15.5292Y-5.765
X15.9992Y-6.09
X12.9Y-8.765
X12.15Y-8.765
X11.4Y-8.765
X8.4Y-8.015
X18.15Y-6.515
X10.65Y-8.765
X8.4Y-8.765
X14.4Y-8.765
X13.65Y-6.515
X12.9Y-8.015
X11.4Y-6.515
X17.4Y-8.015
X12.9Y-6.515
X9.9Y-8.765
X14.4Y-6.515
X9.15Y-8.015
X12.15Y-7.265
X18.055Y-9.095
X18.525Y-8.77
X12.15Y-6.515
X9.9Y-6.515
X9.9Y-8.015
X13.65Y-8.015
X17.4Y-7.265
X15.9Y-6.515
X18.995Y-9.095
X14.4Y-8.015
X9.15Y-6.515
X7.65Y-6.515
X7.65Y-7.265
X9.15Y-7.265
X16.275Y-8.39
X7.65Y-8.015
X10.65Y-7.265
X11.4Y-7.265
X6.9Y-8.015
X9.15Y-8.765
X18.9Y-7.265
X18.9Y-6.515
X9.9Y-7.265
X15.15Y-6.515
X14.4Y-7.265
X15.525Y-9.14
X10.65Y-8.015
X6.9Y-6.515
X17.4Y-6.515
X7.65Y-8.765
X11.4Y-8.015
X6.9Y-8.765
X6.9Y-7.265
X17.025Y-9.14
X18.15Y-8.015
X12.15Y-8.015
X16.275Y-9.14
T0
M30
