M48
; DRILL file {KiCad (5.1.4-0)} date Friday, September 11, 2020 at 02:24:58 AM
; FORMAT={-:-/ absolute / inch / decimal}
; #@! TF.CreationDate,2020-09-11T02:24:58-07:00
; #@! TF.GenerationSoftware,Kicad,Pcbnew,(5.1.4-0)
; #@! TF.FileFunction,Plated,1,2,PTH
FMAT,2
INCH
T1C0.0157
T2C0.0276
T3C0.0579
%
G90
G05
T1
X4.725Y-7.795
X4.725Y-8.49
X4.935Y-7.68
X5.0378Y-8.0722
X5.0378Y-8.2422
X5.57Y-8.49
X5.7369Y-7.9569
T3
X12.75Y-6.415
X12.8016Y-6.3575
X8.25Y-6.415
X8.3016Y-6.3575
X8.5Y-6.315
X15.2484Y-7.0878
X15.25Y-7.065
X8.4984Y-6.3378
X15.0Y-7.165
X15.0516Y-7.1075
X10.5Y-6.415
X10.5516Y-6.3575
X10.7484Y-6.3378
X10.75Y-6.315
X13.5Y-8.665
X13.5516Y-8.6075
X13.7484Y-8.5878
X13.75Y-8.565
X13.5Y-7.165
X13.5516Y-7.1075
X13.7484Y-7.0878
X13.75Y-7.065
X15.0516Y-7.8575
X12.9984Y-6.3378
X15.0Y-7.915
X13.0Y-6.315
X18.375Y-8.67
X18.4266Y-8.6125
X18.6234Y-8.5928
X15.2484Y-7.8378
X11.25Y-6.415
X11.3016Y-6.3575
X11.4984Y-6.3378
X11.5Y-6.315
X12.0Y-7.165
X12.0516Y-7.1075
X12.2484Y-7.0878
X12.25Y-7.065
X18.75Y-7.915
X15.25Y-7.815
X18.8016Y-7.8575
X18.9984Y-7.8378
X19.0Y-7.815
X11.25Y-8.665
X18.0Y-6.415
X18.25Y-6.315
X16.0Y-7.065
X12.75Y-7.165
X12.9984Y-7.0878
X13.0Y-7.065
X8.25Y-7.915
X8.3016Y-7.8575
X8.4984Y-7.8378
X8.5Y-7.815
X12.8016Y-7.1075
X18.0516Y-6.3575
X18.2484Y-6.3378
X15.75Y-7.165
X15.8016Y-7.1075
X15.9984Y-7.0878
X8.25Y-8.665
X8.3016Y-8.6075
X14.5Y-6.315
X11.3016Y-8.6075
X11.4984Y-8.5878
X11.5Y-8.565
X14.25Y-8.665
X14.3016Y-8.6075
X14.4984Y-8.5878
X14.5Y-8.565
X13.7484Y-6.3378
X13.5Y-6.415
X13.5516Y-6.3575
X13.75Y-6.315
X18.0Y-7.165
X18.0516Y-7.1075
X18.2484Y-7.0878
X18.25Y-7.065
X8.25Y-7.165
X8.3016Y-7.1075
X8.4984Y-7.0878
X8.5Y-7.065
X15.3792Y-5.665
X15.4307Y-5.6075
X15.6276Y-5.5878
X15.6292Y-5.565
X12.75Y-7.915
X17.25Y-7.915
X12.8016Y-7.8575
X8.4984Y-8.5878
X13.0Y-7.815
X17.4984Y-7.8378
X17.5Y-7.815
X12.9984Y-7.8378
X12.9984Y-8.5878
X17.3016Y-7.8575
X8.5Y-8.565
X12.75Y-8.665
X12.8016Y-8.6075
X13.0Y-8.565
X12.0Y-8.665
X12.0516Y-8.6075
X12.2484Y-8.5878
X12.25Y-8.565
X9.75Y-8.665
X9.8016Y-8.6075
X9.0Y-7.915
X9.0516Y-7.8575
X9.2484Y-7.8378
X9.25Y-7.815
X10.0Y-8.565
X10.5Y-8.665
X10.5516Y-8.6075
X10.7484Y-8.5878
X10.75Y-8.565
X14.25Y-6.415
X14.3016Y-6.3575
X14.4984Y-6.3378
X9.9984Y-8.5878
X16.1766Y-8.2325
X10.5Y-7.165
X10.5516Y-7.1075
X10.7484Y-7.0878
X10.75Y-7.065
X11.25Y-7.915
X11.3016Y-7.8575
X11.4984Y-7.8378
X11.5Y-7.815
X16.875Y-9.04
X16.9266Y-8.9825
X17.1234Y-8.9628
X17.125Y-8.94
X18.0Y-7.915
X18.0516Y-7.8575
X18.2484Y-7.8378
X18.25Y-7.815
X12.0Y-7.915
X12.0516Y-7.8575
X12.2484Y-7.8378
X12.25Y-7.815
X16.125Y-9.04
X16.1766Y-8.9825
X16.3734Y-8.9628
X16.375Y-8.94
X9.75Y-6.415
X9.8016Y-6.3575
X9.9984Y-6.3378
X10.0Y-6.315
X14.25Y-7.915
X14.3016Y-7.8575
X12.0516Y-6.3575
X16.375Y-8.19
X16.3734Y-8.2128
X14.4984Y-7.8378
X14.5Y-7.815
X18.625Y-8.57
X7.7484Y-6.3378
X7.5516Y-7.8575
X7.75Y-6.315
X12.0Y-6.415
X10.5Y-7.915
X10.75Y-7.815
X10.7484Y-7.8378
X7.5Y-7.915
X7.5Y-6.415
X7.5516Y-6.3575
X6.9984Y-6.3378
X7.0Y-6.315
X10.5516Y-7.8575
X6.75Y-6.415
X6.8016Y-6.3575
X16.125Y-8.29
X13.7484Y-7.8378
X13.75Y-7.815
X13.5Y-7.915
X13.5516Y-7.8575
X7.75Y-7.815
X7.7484Y-7.8378
X12.2484Y-6.3378
X12.25Y-6.315
X17.25Y-7.165
X17.3016Y-7.1075
X17.4984Y-7.0878
X17.5Y-7.065
X9.75Y-7.915
X9.8016Y-7.8575
X9.9984Y-7.8378
X10.0Y-7.815
X15.375Y-9.04
X15.4266Y-8.9825
X15.6234Y-8.9628
X16.0Y-6.315
X15.75Y-6.415
X15.8016Y-6.3575
X15.9984Y-6.3378
X7.7484Y-7.0878
X7.75Y-7.065
X15.625Y-8.94
X18.8016Y-7.1075
X19.0Y-7.065
X9.0Y-6.415
X9.0516Y-6.3575
X9.2484Y-6.3378
X9.25Y-6.315
X7.5Y-7.165
X7.5516Y-7.1075
X9.0Y-7.165
X9.0516Y-7.1075
X9.2484Y-7.0878
X9.25Y-7.065
X18.75Y-7.165
X18.9984Y-7.0878
X9.75Y-7.165
X9.8016Y-7.1075
X9.9984Y-7.0878
X10.0Y-7.065
X11.25Y-7.165
X11.3016Y-7.1075
X11.4984Y-7.0878
X11.5Y-7.065
X6.75Y-7.915
X6.8016Y-7.8575
X6.9984Y-7.8378
X7.0Y-7.815
X9.0516Y-8.6075
X15.2484Y-6.3378
X6.8016Y-8.6075
X6.9984Y-8.5878
X7.0Y-8.565
X14.4984Y-7.0878
X14.5Y-7.065
X17.25Y-6.415
X17.3016Y-6.3575
X17.4984Y-6.3378
X17.5Y-6.315
X6.75Y-8.665
X15.0Y-6.415
X15.0516Y-6.3575
X15.25Y-6.315
X14.25Y-7.165
X14.3016Y-7.1075
X7.5Y-8.665
X7.5516Y-8.6075
X7.0Y-7.065
X18.75Y-6.415
X18.9984Y-6.3378
X19.0Y-6.315
X7.7484Y-8.5878
X6.75Y-7.165
X6.8016Y-7.1075
X9.2484Y-8.5878
X9.25Y-8.565
X18.8016Y-6.3575
X7.75Y-8.565
X9.0Y-8.665
X6.9984Y-7.0878
T2
G00X4.37Y-7.1339
M15
G01X4.37Y-7.1811
M16
G05
G00X4.37Y-7.311
M15
G01X4.37Y-7.3583
M16
G05
G00X4.6575Y-7.1339
M15
G01X4.6575Y-7.1811
M16
G05
G00X4.6575Y-7.311
M15
G01X4.6575Y-7.3583
M16
G05
T0
M30
